<svg viewBox="0 0 204 136" fill="none" xmlns="http://www.w3.org/2000/svg" class="w-[37%]"><rect x="4.18" y="0.64" width="199" height="125.815" rx="9.611" fill="#0C0313"></rect><rect x="4.18" y="0.64" width="199" height="125.815" rx="9.611" fill="url(#Vault_svg__a)"></rect><rect x="4.18" y="0.64" width="199" height="125.815" rx="9.611" stroke="#ffffff10"></rect><rect x="30.938" y="59.813" width="32" height="8" rx="4" fill="#9203FC"></rect><circle cx="63.141" cy="63.548" r="14.284" fill="#9203FC" fill-opacity="0.24" stroke="#9203FC" stroke-width="4.213"></circle><circle cx="152.127" cy="63.548" r="24.357" fill="#9203FC" fill-opacity="0.24" stroke="#9203FC" stroke-width="4.213"></circle><rect x="149.269" y="79.308" width="5.721" height="10.363" rx="2.86" fill="#9203FC"></rect><rect x="159.084" y="77.981" width="5.721" height="10.363" rx="2.86" transform="rotate(-36 159.084 77.98)" fill="#9203FC"></rect><rect x="166.241" y="71.14" width="5.721" height="10.363" rx="2.86" transform="rotate(-72 166.241 71.14)" fill="#9203FC"></rect><rect x="167.998" y="61.4" width="5.721" height="10.363" rx="2.86" transform="rotate(-108 167.998 61.4)" fill="#9203FC"></rect><rect x="163.706" y="52.483" width="5.721" height="10.363" rx="2.86" transform="rotate(-144 163.706 52.483)" fill="#9203FC"></rect><rect x="154.989" y="47.792" width="5.721" height="10.363" rx="2.86" transform="rotate(180 154.989 47.792)" fill="#9203FC"></rect><rect x="145.182" y="49.119" width="5.721" height="10.363" rx="2.86" transform="rotate(144 145.182 49.12)" fill="#9203FC"></rect><circle cx="151.996" cy="63.571" r="7.551" fill="#9203FC"></circle><rect x="138.025" y="55.96" width="5.721" height="10.363" rx="2.86" transform="rotate(108 138.025 55.96)" fill="#9203FC"></rect><rect x="136.268" y="65.699" width="5.721" height="10.363" rx="2.86" transform="rotate(72 136.268 65.7)" fill="#9203FC"></rect><rect x="140.56" y="74.616" width="5.721" height="10.363" rx="2.86" transform="rotate(36 140.56 74.616)" fill="#9203FC"></rect><rect x="0.313" y="32.372" width="6.741" height="16.852" rx="3.37" fill="#9203FC"></rect><rect x="0.313" y="77.873" width="6.741" height="16.852" rx="3.37" fill="#9203FC"></rect><path d="M49.317 135.603a2.11 2.11 0 0 1-1.974-1.365l-2.663-7.057h21.107l-2.703 7.065a2.11 2.11 0 0 1-1.97 1.357H49.317ZM146.21 135.603a2.11 2.11 0 0 1-1.974-1.365l-2.663-7.057h21.107l-2.703 7.065a2.11 2.11 0 0 1-1.97 1.357H146.21Z" fill="#9203FC"></path><defs><linearGradient id="Vault_svg__a" x1="103.68" y1="-270.733" x2="103.68" y2="331.993" gradientUnits="userSpaceOnUse"><stop stop-color="#9203FC" stop-opacity="0.42"></stop><stop offset="1" stop-color="#9203FC" stop-opacity="0"></stop></linearGradient></defs></svg>