<svg viewBox="0 0 90 30" fill="none" xmlns="http://www.w3.org/2000/svg"><g clip-path="url(#clip0_574_3830)"><path d="M38.3722 15.3158C38.3722 19.4559 35.119 22.5067 31.1265 22.5067C27.1341 22.5067 23.8809 19.4559 23.8809 15.3158C23.8809 11.1466 27.1341 8.125 31.1265 8.125C35.119 8.125 38.3722 11.1466 38.3722 15.3158ZM35.2004 15.3158C35.2004 12.7287 33.3149 10.9585 31.1265 10.9585C28.9382 10.9585 27.0527 12.7287 27.0527 15.3158C27.0527 17.877 28.9382 19.6731 31.1265 19.6731C33.3149 19.6731 35.2004 17.8738 35.2004 15.3158Z" fill="#0F0F0F"></path><path d="M54.0031 15.3158C54.0031 19.4559 50.7498 22.5067 46.7574 22.5067C42.7649 22.5067 39.5117 19.4559 39.5117 15.3158C39.5117 11.1498 42.7649 8.125 46.7574 8.125C50.7498 8.125 54.0031 11.1466 54.0031 15.3158ZM50.8312 15.3158C50.8312 12.7287 48.9457 10.9585 46.7574 10.9585C44.569 10.9585 42.6835 12.7287 42.6835 15.3158C42.6835 17.877 44.569 19.6731 46.7574 19.6731C48.9457 19.6731 50.8312 17.8738 50.8312 15.3158Z" fill="#0F0F0F"></path><path d="M68.9833 8.55943V21.4692C68.9833 26.7797 65.8375 28.9486 62.1186 28.9486C58.6179 28.9486 56.511 26.6176 55.7164 24.7112L58.4779 23.5668C58.9696 24.7372 60.1745 26.1183 62.1154 26.1183C64.4959 26.1183 65.971 24.6561 65.971 21.9036V20.8694H65.8603C65.1504 21.7415 63.7827 22.5034 62.0567 22.5034C58.4453 22.5034 55.1367 19.3716 55.1367 15.3418C55.1367 11.2827 58.4453 8.125 62.0567 8.125C63.7794 8.125 65.1471 8.88688 65.8603 9.73305H65.971V8.56267H68.9833V8.55943ZM66.1957 15.3418C66.1957 12.8097 64.4991 10.9585 62.3401 10.9585C60.1517 10.9585 58.3183 12.8097 58.3183 15.3418C58.3183 17.8479 60.1517 19.6731 62.3401 19.6731C64.4991 19.6731 66.1957 17.8479 66.1957 15.3418Z" fill="#0F0F0F"></path><path d="M73.9491 0.992188V22.0654H70.8555V0.992188H73.9491Z" fill="#0F0F0F"></path><path d="M86.0048 17.6819L88.4667 19.3158C87.6722 20.4862 85.7574 22.5028 82.4488 22.5028C78.3456 22.5028 75.2812 19.345 75.2812 15.3119C75.2812 11.0357 78.3717 8.12109 82.0938 8.12109C85.842 8.12109 87.6754 11.0908 88.2746 12.6956L88.6035 13.5126L78.9481 17.4938C79.6873 18.9365 80.8368 19.6725 82.4488 19.6725C84.064 19.6725 85.1842 18.8814 86.0048 17.6819ZM78.427 15.0947L84.8814 12.4265C84.5264 11.5285 83.4583 10.9028 82.2013 10.9028C80.5893 10.9028 78.3456 12.3195 78.427 15.0947Z" fill="#0F0F0F"></path><path d="M12.1698 13.4448V10.394H22.4961C22.5971 10.9257 22.6492 11.5547 22.6492 12.2355C22.6492 14.5244 22.0207 17.3547 19.9951 19.3712C18.025 21.4137 15.5077 22.503 12.1731 22.503C5.99227 22.503 0.794922 17.4908 0.794922 11.3374C0.794922 5.18406 5.99227 0.171875 12.1731 0.171875C15.5924 0.171875 18.0282 1.50759 19.8584 3.24857L17.6961 5.40128C16.3837 4.17579 14.6057 3.22263 12.1698 3.22263C7.65633 3.22263 4.1263 6.84398 4.1263 11.3374C4.1263 15.8309 7.65633 19.4523 12.1698 19.4523C15.0974 19.4523 16.7647 18.2819 17.8328 17.2185C18.6991 16.3561 19.2689 15.1241 19.4936 13.4415L12.1698 13.4448Z" fill="#0F0F0F"></path></g></svg>