<svg viewBox="0 0 463 134" fill="none" xmlns="http://www.w3.org/2000/svg"><path fill-rule="evenodd" clip-rule="evenodd" d="M49.0008 121.477C49.3679 122.857 47.5509 123.937 46.6759 122.808C8.86519 74.0395 57.853 48.5964 56.1775 8.84522C56.1156 7.37614 58.5048 6.61293 59.1896 7.91415C101.859 88.998 36.8662 75.8587 49.0008 121.477Z" fill="currentColor"></path><path fill-rule="evenodd" clip-rule="evenodd" d="M62.482 128.529C61.7994 128.844 60.9697 128.463 60.7389 127.748C48.4716 89.7344 84.6931 90.0044 85.8221 55.9165C85.8723 54.4013 88.459 53.8139 88.9588 55.2451C102.779 94.824 93.6294 114.185 62.482 128.529Z" fill="currentColor"></path><path fill-rule="evenodd" clip-rule="evenodd" d="M35.9526 129.112C37.1285 129.494 38.0009 128.077 37.2498 127.094C-1.3337 76.6304 41.1213 60.5871 30.181 32.4244C29.6888 31.1576 27.7937 31.6172 27.6792 32.9714C26.8294 43.0146 22.1901 54.3441 18.7938 61.768C11.9235 76.2379 9.97522 69.0373 10.9396 60.4649C11.0975 59.0612 9.13792 58.186 8.39736 59.3888C-8.29852 86.5048 2.96847 118.377 35.9526 129.112Z" fill="currentColor"></path><path d="M141.455 110.728H126.687L153.576 34.3481H170.657L197.584 110.728H182.815L162.415 50.012H161.818L141.455 110.728ZM141.94 80.7804H182.219V91.8943H141.94V80.7804Z" fill="currentColor"></path><path d="M202.847 110.728V53.4432H215.937V62.9907H216.534C217.578 59.6839 219.368 57.1354 221.904 55.3452C224.465 53.5302 227.387 52.6227 230.669 52.6227C231.414 52.6227 232.247 52.66 233.167 52.7346C234.112 52.7843 234.895 52.8713 235.517 52.9956V65.4149C234.945 65.216 234.038 65.0419 232.794 64.8927C231.576 64.7187 230.395 64.6317 229.251 64.6317C226.79 64.6317 224.577 65.1662 222.613 66.2354C220.674 67.2796 219.144 68.7341 218.026 70.5989C216.907 72.4636 216.347 74.6143 216.347 77.0509V110.728H202.847Z" fill="currentColor"></path><path d="M256.432 111.884C252.802 111.884 249.533 111.238 246.624 109.945C243.74 108.627 241.452 106.688 239.761 104.127C238.096 101.566 237.263 98.4085 237.263 94.6541C237.263 91.4219 237.859 88.7491 239.053 86.6357C240.246 84.5223 241.875 82.8316 243.938 81.5636C246.002 80.2956 248.327 79.3383 250.913 78.6919C253.523 78.0206 256.221 77.5358 259.006 77.2374C262.362 76.8893 265.085 76.5785 267.173 76.305C269.262 76.0067 270.778 75.5591 271.723 74.9624C272.693 74.3408 273.178 73.3836 273.178 72.0907V71.8669C273.178 69.0574 272.345 66.8818 270.679 65.3403C269.013 63.7988 266.614 63.028 263.481 63.028C260.174 63.028 257.551 63.749 255.612 65.1911C253.697 66.6332 252.404 68.3363 251.733 70.3005L239.127 68.5104C240.122 65.0295 241.763 62.1205 244.05 59.7833C246.338 57.4213 249.135 55.656 252.442 54.4874C255.748 53.294 259.403 52.6973 263.406 52.6973C266.166 52.6973 268.914 53.0205 271.648 53.667C274.383 54.3134 276.882 55.3825 279.145 56.8743C281.407 58.3413 283.222 60.3428 284.59 62.8788C285.982 65.4149 286.678 68.5849 286.678 72.389V110.728H273.7V102.859H273.252C272.432 104.45 271.276 105.942 269.784 107.334C268.317 108.702 266.464 109.808 264.227 110.654C262.014 111.474 259.416 111.884 256.432 111.884ZM259.938 101.964C262.648 101.964 264.998 101.429 266.987 100.36C268.976 99.2663 270.505 97.8242 271.574 96.0341C272.668 94.2439 273.215 92.2921 273.215 90.1788V83.4284C272.792 83.7764 272.071 84.0997 271.052 84.398C270.057 84.6964 268.938 84.9575 267.695 85.1812C266.452 85.405 265.221 85.6039 264.003 85.778C262.785 85.952 261.728 86.1012 260.833 86.2255C258.819 86.499 257.016 86.9465 255.425 87.5681C253.834 88.1897 252.578 89.0599 251.658 90.1788C250.738 91.2728 250.279 92.69 250.279 94.4304C250.279 96.9167 251.186 98.7939 253.001 100.062C254.816 101.33 257.128 101.964 259.938 101.964Z" fill="currentColor"></path><path d="M319.191 132.931C314.343 132.931 310.178 132.273 306.697 130.955C303.216 129.662 300.419 127.921 298.306 125.733C296.193 123.546 294.726 121.121 293.905 118.461L306.063 115.515C306.61 116.634 307.406 117.74 308.45 118.834C309.494 119.953 310.899 120.873 312.664 121.594C314.455 122.34 316.705 122.713 319.415 122.713C323.244 122.713 326.414 121.78 328.925 119.915C331.436 118.076 332.692 115.042 332.692 110.816V99.9627H332.021C331.324 101.355 330.305 102.785 328.962 104.252C327.645 105.719 325.892 106.949 323.704 107.944C321.541 108.938 318.818 109.436 315.536 109.436C311.135 109.436 307.145 108.404 303.565 106.34C300.009 104.252 297.175 101.144 295.061 97.0164C292.973 92.8643 291.929 87.6679 291.929 81.4272C291.929 75.1368 292.973 69.8285 295.061 65.5023C297.175 61.1512 300.022 57.8569 303.602 55.6192C307.182 53.3566 311.173 52.2253 315.573 52.2253C318.93 52.2253 321.69 52.7972 323.853 53.9409C326.041 55.0597 327.781 56.4148 329.074 58.006C330.367 59.5724 331.349 61.0518 332.021 62.4441H332.766V52.9712H346.081V111.188C346.081 116.087 344.912 120.139 342.575 123.347C340.238 126.554 337.043 128.953 332.99 130.545C328.937 132.136 324.338 132.931 319.191 132.931ZM319.303 98.8439C322.162 98.8439 324.599 98.1477 326.613 96.7554C328.627 95.363 330.156 93.3616 331.2 90.7509C332.244 88.1403 332.766 85.0075 332.766 81.3526C332.766 77.7474 332.244 74.5898 331.2 71.8797C330.181 69.1696 328.664 67.0687 326.65 65.5769C324.661 64.0602 322.212 63.3019 319.303 63.3019C316.295 63.3019 313.783 64.0851 311.769 65.6515C309.756 67.2179 308.239 69.3685 307.219 72.1035C306.2 74.8136 305.69 77.8966 305.69 81.3526C305.69 84.8583 306.2 87.9289 307.219 90.5644C308.264 93.1751 309.793 95.2138 311.807 96.6808C313.845 98.1229 316.344 98.8439 319.303 98.8439Z" fill="currentColor"></path><path d="M378.025 111.652C372.431 111.652 367.583 110.422 363.48 107.96C359.378 105.499 356.195 102.055 353.933 97.6293C351.695 93.2036 350.576 88.0321 350.576 82.1146C350.576 76.1971 351.695 71.0131 353.933 66.5626C356.195 62.112 359.378 58.656 363.48 56.1946C367.583 53.7331 372.431 52.5024 378.025 52.5024C383.619 52.5024 388.468 53.7331 392.57 56.1946C396.673 58.656 399.843 62.112 402.08 66.5626C404.343 71.0131 405.474 76.1971 405.474 82.1146C405.474 88.0321 404.343 93.2036 402.08 97.6293C399.843 102.055 396.673 105.499 392.57 107.96C388.468 110.422 383.619 111.652 378.025 111.652ZM378.1 100.837C381.133 100.837 383.669 100.004 385.708 98.3379C387.747 96.6472 389.263 94.3847 390.258 91.5502C391.277 88.7158 391.787 85.5582 391.787 82.0773C391.787 78.5716 391.277 75.4015 390.258 72.5671C389.263 69.7078 387.747 67.4328 385.708 65.7421C383.669 64.0514 381.133 63.206 378.1 63.206C374.992 63.206 372.406 64.0514 370.342 65.7421C368.304 67.4328 366.775 69.7078 365.755 72.5671C364.761 75.4015 364.263 78.5716 364.263 82.0773C364.263 85.5582 364.761 88.7158 365.755 91.5502C366.775 94.3847 368.304 96.6472 370.342 98.3379C372.406 100.004 374.992 100.837 378.1 100.837Z" fill="currentColor"></path><path d="M423.789 76.9679V110.533H410.288V53.2483H423.192V62.9823H423.863C425.181 59.7749 427.282 57.2264 430.166 55.3368C433.075 53.4472 436.668 52.5024 440.944 52.5024C444.898 52.5024 448.341 53.3477 451.275 55.0384C454.234 56.7291 456.521 59.1782 458.137 62.3855C459.778 65.5929 460.586 69.484 460.562 74.0589V110.533H447.061V76.1474C447.061 72.3185 446.066 69.3224 444.077 67.1593C442.113 64.9962 439.391 63.9146 435.91 63.9146C433.548 63.9146 431.447 64.4368 429.607 65.481C427.792 66.5004 426.362 67.9798 425.318 69.9191C424.299 71.8585 423.789 74.2081 423.789 76.9679Z" fill="currentColor"></path></svg>