<svg viewBox="0 0 1123 294" fill="none" xmlns="http://www.w3.org/2000/svg"><g clip-path="url(#clip0_878_959)"><mask id="mask0_878_959" maskUnits="userSpaceOnUse" x="0" y="0" width="1123" height="294"><path d="M0 5.81936e-05H1122.52V293.66H0V5.81936e-05Z" fill="white"></path></mask><g mask="url(#mask0_878_959)"><path d="M459.197 198.867C459.197 196.6 457.719 194.923 454.699 194.27V192.803C456.371 192.803 461.939 193.027 463.506 193.027C464.861 193.027 470.253 192.803 471.93 192.803V194.27C469.127 194.816 467.655 196.471 467.655 198.867V227.642C467.655 236.754 472.659 241.904 483.126 241.904C492.145 241.904 499.162 237.855 499.162 228.319V198.755C499.162 196.618 497.819 194.923 494.441 194.27V192.803C495.67 192.803 500.274 193.027 501.846 193.027C503.189 193.027 508.021 192.803 509.257 192.803V194.27C505.997 195.047 504.547 196.506 504.547 198.755V226.734C504.547 239.291 497.242 246.503 481.478 246.503C466.802 246.503 459.197 239.832 459.197 228.035V198.867Z" fill="#1D1D1B"></path><path d="M522.149 244.247C525.564 243.611 526.912 241.882 526.912 239.762V199.991C526.912 196.618 525.116 195.101 522.055 194.265V192.798C523.787 192.927 526.693 193.003 528.177 193.003C529.525 193.003 531.621 192.981 533.033 192.798L567.529 233.358V198.755C567.529 196.623 566.176 194.929 562.809 194.265V192.798C564.045 192.798 568.484 193.027 570.061 193.027C571.433 193.027 576.189 192.798 577.443 192.798V194.265C574.152 195.041 572.564 196.513 572.564 198.755V246.502H570.485C569.177 246.202 566.705 244.795 562.939 240.663L532.075 204.713V239.762C532.075 241.893 533.304 243.582 536.672 244.247V245.719C535.436 245.719 530.997 245.485 529.42 245.485C528.06 245.485 523.403 245.719 522.149 245.719V244.247Z" fill="#1D1D1B"></path><path d="M794.349 233.522H795.809C796.581 236.494 798.281 239.203 800.665 240.769C803.145 242.517 807.036 243.353 810.179 243.353C817.119 243.353 821.517 239.915 821.517 234.475C821.517 228.842 815.883 225.917 809.132 222.543C804.109 220.03 794.244 215.881 794.244 206.343C794.244 197.459 801.02 191.933 811.857 191.933C819.009 191.933 822.365 193.681 827.192 193.457L827.099 204.235H825.625C823.695 197.883 817.927 195.67 811.609 195.67C804.545 195.67 801.903 199.71 801.903 203.818C801.903 209.699 807.659 212.665 814.181 215.574C821.517 218.841 829.476 222.967 829.476 232.157C829.476 240.857 822.671 247.157 810.232 247.157C802.832 247.157 798.393 245.043 794.503 244.565L794.349 233.522Z" fill="#1D1D1B"></path><path d="M942.595 223.827L928.55 201.293C926.154 197.337 924.318 195.252 921.645 194.264V192.803C923.57 192.803 928.769 193.033 930.245 193.033C931.581 193.033 937.191 192.803 939.217 192.803V194.264C937.421 194.581 936.579 195.481 936.579 196.836C936.579 198.031 937.393 199.568 938.21 200.904C939.011 202.228 948.566 218.076 948.566 218.076L958.542 200.911C959.55 199.191 960.262 197.484 960.262 196.359C960.262 195.335 959.537 194.487 957.837 194.264V192.803C959.526 192.803 963.075 193.033 964.206 193.033C965.337 193.033 969.415 192.803 971.093 192.803V194.164C967.255 195.736 964.859 199.103 962.534 203.005L949.766 224.345M950.637 221.655V239.656C950.637 241.44 951.997 243.683 955.069 244.247V245.72C953.357 245.72 947.765 245.484 946.146 245.484C944.786 245.484 939.422 245.72 937.486 245.72V244.247C940.57 243.683 942.049 241.44 942.049 239.656V222.444" fill="#1D1D1B"></path><path d="M681.607 192.803H714.543C715.562 192.803 717.346 192.686 718.363 192.245H719.837L719.606 202.946H718.146C716.893 199.579 715.591 196.883 709.217 196.883H694.917V215.533H705.938C707.545 215.533 709.493 215.397 710.335 215.197C712.813 214.655 713.903 213.277 714.403 211.165H715.874C715.769 212.777 715.769 216.457 715.769 217.546C715.769 218.641 715.874 222.514 715.874 224.269H714.403C713.695 222.161 712.731 220.559 710.335 219.971C709.493 219.747 707.51 219.565 705.938 219.565H694.917V241.441H710.47C717.263 241.441 719.237 238.609 720.925 234.606L722.379 234.946L720.925 245.938C715.874 245.49 712.843 245.49 707.109 245.49H690.674C689.09 245.49 683.279 245.721 681.59 245.721V244.254C684.557 243.689 686.289 242.222 686.289 239.379V198.921C686.289 196.413 684.939 194.846 681.607 194.287V192.803Z" fill="#1D1D1B"></path><path d="M597.487 199.208C597.487 196.495 595.868 195 592.695 194.316V192.863C594.461 192.863 600.179 193.086 601.844 193.086C603.239 193.086 609.115 192.863 610.904 192.863V194.316C607.748 195 606.093 196.352 606.093 199.208V239.386C606.093 242.099 607.719 243.576 610.904 244.247V245.72C609.12 245.72 603.485 245.49 601.844 245.49C600.424 245.49 594.461 245.72 592.689 245.72V244.247C595.933 243.642 597.487 242.223 597.487 239.386V199.208Z" fill="#1D1D1B"></path><path d="M847.337 199.208C847.337 196.495 845.7 195 842.533 194.316V192.863C844.3 192.863 850.021 193.086 851.675 193.086C853.083 193.086 858.957 192.863 860.741 192.863V194.316C857.587 195 855.937 196.352 855.937 199.208V239.386C855.937 242.099 857.563 243.576 860.741 244.247V245.72C858.969 245.72 853.341 245.49 851.675 245.49C850.28 245.49 844.3 245.72 842.533 245.72V244.247C845.771 243.642 847.337 242.223 847.337 239.386V199.208Z" fill="#1D1D1B"></path><path d="M893.116 193.027C875.062 193.027 872.172 192.691 868.48 192.462L868.511 203.365H869.982C871.33 198.531 874.02 197.407 877.506 197.407H888.831V239.386C888.831 242.222 887.278 243.642 884.028 244.247V245.721C885.811 245.721 891.827 245.49 893.216 245.49C894.871 245.49 900.523 245.721 902.283 245.721V244.247C899.091 243.577 897.474 242.099 897.474 239.386V197.407H908.71C912.324 197.407 914.91 198.638 916.256 203.365H917.711L917.735 192.462C914.067 192.691 911.178 193.027 893.116 193.027Z" fill="#1D1D1B"></path><path d="M749.047 239.385C749.047 242.099 750.771 243.571 753.956 244.247V245.72C752.189 245.72 746.415 245.489 744.767 245.489C743.353 245.489 737.715 245.72 735.938 245.72V244.247C738.892 243.683 740.633 242.223 740.633 239.385V198.797C740.633 196.301 739.275 194.729 735.949 194.164V192.704C737.715 192.704 743.3 192.927 744.879 192.927C747.464 192.927 754.809 192.492 757.7 192.492C770.356 192.492 777.403 197.725 777.403 206.696C777.403 213.748 772.157 218.517 764.08 220.465C764.08 220.465 765.924 221.536 767.76 223.673C769.992 226.304 776.019 234.953 778.52 237.977C781.017 241.011 784.213 244.395 787.639 244.548V245.731C785.997 246.089 783.365 246.403 781.352 246.403C777.055 246.403 773.624 244.884 770.292 240.852C767.408 237.343 762.516 230.061 759.636 226.381C757.795 224.039 755.563 222.208 751.477 221.536C750.688 221.401 749.941 221.289 749.047 221.184V239.385ZM749.047 217.816C750.731 218.045 753.208 218.152 755.657 218.152C765.565 218.152 768.685 212.453 768.685 207.409C768.685 200.275 763.921 195.853 755.251 195.853C753.456 195.853 750.853 196.077 749.047 196.417V217.816Z" fill="#1D1D1B"></path><path d="M623.594 199.379C622.44 196.824 620.668 194.952 617.648 194.288V192.798C619.526 192.798 626.031 193.034 627.46 193.034C628.775 193.034 634.46 192.798 636.392 192.798V194.246C634.678 194.575 632.724 195.523 632.724 197.278C632.724 198.531 633.483 200.239 634.938 203.454L648.571 234.475L661.475 203.4C662.494 200.892 663.23 198.95 663.23 197.466C663.23 195.824 661.716 194.687 659.572 194.246V192.798C661.287 192.798 665.49 193.034 666.796 193.034C667.991 193.034 672.924 192.798 674.808 192.798V194.288C671.588 195.159 669.627 196.931 667.82 201.128L648.83 245.907H644.532L623.594 199.379Z" fill="#1D1D1B"></path><path d="M672.282 58.1574C670.088 53.312 666.72 49.78 661.016 48.5147V45.6947C664.565 45.6947 676.35 46.1187 679.058 46.1187C681.554 46.1187 692.969 45.6947 696.606 45.6947V48.444C693.38 49.0747 689.672 50.876 689.672 54.2014C689.672 56.5494 691.132 59.7947 693.84 65.8747L719.7 124.665L744.17 65.7747C746.078 61.0067 747.502 57.3627 747.502 54.5427C747.502 51.4107 744.606 49.2867 740.55 48.444V45.6947C743.788 45.6947 751.658 46.1187 754.16 46.1187C756.433 46.1187 765.781 45.6947 769.337 45.6947V48.356C763.238 50.0107 759.506 53.5134 756.109 61.4654L720.136 146.347H711.994L672.282 58.1574Z" fill="#1D1D1B"></path><path d="M324.068 143.114C328.766 142.042 332.068 139.906 332.068 134.585V56.7678C332.068 51.6585 328.995 49.5385 324.068 48.2558V45.4945C326.535 45.4945 337.16 45.9131 339.744 45.9131C342.723 45.9131 353.86 45.4945 356.31 45.4945V48.2558C351.618 49.3211 348.139 51.4518 348.139 56.7678V89.2745H406.111V56.7678C406.111 51.4518 403.02 49.3211 398.123 48.2558V45.4945C400.571 45.4945 411.51 45.9131 414.482 45.9131C417.048 45.9131 427.922 45.4945 430.346 45.4945V48.2558C425.65 49.3211 422.17 51.4518 422.17 56.7678V134.585C422.17 139.694 425.436 141.837 430.346 143.114V145.662C427.922 145.662 417.048 145.452 414.482 145.452C411.51 145.452 400.571 145.662 398.123 145.662V143.114C402.786 142.042 406.111 139.906 406.111 134.585V97.8091H348.139V134.585C348.139 139.906 351.4 141.837 356.31 143.114V145.662C353.86 145.662 342.723 145.452 339.744 145.452C337.16 145.452 326.535 145.662 324.068 145.662V143.114Z" fill="#1D1D1B"></path><path d="M994.621 143.114C1000.64 142.042 1003.95 139.653 1003.95 134.161V56.7677C1003.95 51.4344 1000.68 49.3211 994.869 48.2557V45.4944C998.217 45.4944 1009.12 45.9131 1012.14 45.9131C1017.01 45.9131 1030.61 44.8477 1041.2 44.8477C1076.86 44.8477 1098.51 64.7624 1098.51 95.0437C1098.51 124.477 1075.98 146.288 1039.21 146.288C1028.61 146.288 1016.04 145.452 1011.12 145.452C1008.13 145.452 997.958 145.874 994.621 145.874V143.114ZM1020.01 137.986C1023.64 138.646 1030.35 139.058 1035.65 139.058C1065.6 139.058 1081.2 121.028 1081.2 95.8797C1081.2 69.8077 1064.74 51.4637 1036.73 51.4637C1031.01 51.4637 1023.86 51.8931 1020.01 52.5184V137.986Z" fill="#1D1D1B"></path><path d="M590.964 133.878C590.964 139.035 594.231 141.837 600.242 143.114V145.875C596.892 145.875 585.984 145.451 582.847 145.451C580.198 145.451 569.495 145.875 566.152 145.875V143.114C571.732 142.043 575.023 139.265 575.023 133.878V57.0394C575.023 52.3114 572.468 49.3221 566.163 48.2554V45.4941C569.514 45.4941 580.086 45.9128 583.052 45.9128C587.956 45.9128 601.862 45.0954 607.347 45.0954C631.33 45.0954 644.68 55.0141 644.68 71.9794C644.68 85.3541 634.72 94.3541 619.434 98.0688C619.434 98.0688 622.9 100.089 626.39 104.155C630.623 109.13 642.303 125.849 647.024 131.575C651.744 137.31 657.802 143.714 664.278 144.009V146.265C661.175 146.934 656.207 147.506 652.41 147.506C644.234 147.506 637.74 144.645 631.424 136.991C625.979 130.351 616.454 116.235 610.996 109.266C607.512 104.826 603.31 101.366 595.592 100.089C594.072 99.8288 592.643 99.6288 590.964 99.4408V133.878ZM590.964 93.0661C594.138 93.4834 598.828 93.6954 603.48 93.6954C622.235 93.6954 628.127 82.8994 628.127 73.3621C628.127 59.8181 619.108 51.4634 602.679 51.4634C599.294 51.4634 594.362 51.8941 590.964 52.5181V93.0661Z" fill="#1D1D1B"></path><path d="M907.057 133.878C907.057 139.035 910.336 141.837 916.353 143.114V145.875C913.009 145.875 902.112 145.451 898.975 145.451C896.279 145.451 885.612 145.875 882.256 145.875V143.114C887.825 142.043 891.123 139.265 891.123 133.878V57.0394C891.123 52.3114 888.544 49.3221 882.275 48.2554V45.4941C885.636 45.4941 896.173 45.9128 899.164 45.9128C904.079 45.9128 917.976 45.0954 923.428 45.0954C947.452 45.0954 960.761 55.0141 960.761 71.9794C960.761 85.3541 950.825 94.3541 935.527 98.0688C935.527 98.0688 939.011 100.089 942.472 104.155C946.745 109.13 958.424 125.849 963.128 131.575C967.867 137.31 973.924 143.714 980.364 144.009V146.265C977.304 146.934 972.307 147.506 968.549 147.506C960.356 147.506 953.833 144.645 947.533 136.991C942.088 130.351 932.593 116.235 927.089 109.266C923.604 104.826 919.415 101.366 911.713 100.089C910.172 99.8288 908.757 99.6288 907.057 99.4408V133.878ZM907.057 93.0661C910.271 93.4834 914.933 93.6954 919.589 93.6954C938.352 93.6954 944.227 82.8994 944.227 73.3621C944.227 59.8181 935.201 51.4634 918.803 51.4634C915.387 51.4634 910.477 51.8941 907.057 52.5181V93.0661Z" fill="#1D1D1B"></path><path d="M445.599 143.096C451.944 141.614 455.43 137.504 457.743 132.006L489.85 54.7549C491.215 51.5589 492.804 44.9882 492.804 44.9882H501.788C501.788 44.9882 503.395 51.5762 504.731 54.7789L538.662 132.218C541.082 137.551 543.7 141.402 550.447 143.096L550.43 145.67C546.756 145.67 535.336 145.458 532.739 145.458C530.155 145.458 519.247 145.67 515.58 145.67L515.592 143.096C520.531 141.884 522.091 139.371 522.091 136.939C522.091 134.874 521.238 132.542 520.202 130.123L512.907 113.486H475.52L468.84 130.216C468.092 132.112 467.203 134.791 467.203 136.598C467.203 139.388 468.663 141.614 474.267 143.096L474.255 145.67C470.935 145.67 462.17 145.458 460.116 145.458L445.594 145.67L445.599 143.096ZM509.523 105.598L493.558 68.4002L478.688 105.598H509.523Z" fill="#1D1D1B"></path><path d="M763.674 143.096C770.015 141.614 773.511 137.504 775.813 132.006L807.93 54.7549C809.297 51.5589 810.903 44.9882 810.903 44.9882H819.886C819.886 44.9882 821.477 51.5762 822.807 54.7789L856.75 132.218C859.15 137.551 861.794 141.402 868.511 143.096L868.499 145.67C864.838 145.67 853.406 145.458 850.791 145.458C848.231 145.458 837.329 145.67 833.655 145.67V143.096C838.625 141.884 840.161 139.371 840.161 136.939C840.161 134.874 839.318 132.542 838.301 130.123L830.978 113.486H793.59L786.903 130.216C786.155 132.112 785.273 134.791 785.273 136.598C785.273 139.388 786.733 141.614 792.337 143.096V145.67C789.005 145.67 780.253 145.458 778.186 145.458L763.662 145.67L763.674 143.096ZM827.598 105.598L811.622 68.4002L796.763 105.598H827.598Z" fill="#1D1D1B"></path><path d="M27.6484 14.2603H251.508V98.823C251.508 137.568 237.086 219.735 140.414 280.887C140.414 280.887 35.6658 237.142 27.6484 98.823L27.6484 14.2603Z" fill="#A81D28"></path><path d="M27.1895 14.0363H251.267V98.6576C251.267 137.416 236.827 219.628 140.067 280.822C140.067 280.822 35.2188 237.048 27.1895 98.6576L27.1895 14.0363Z" stroke="#12110C" stroke-width="0.306667"></path><path d="M197.086 122.923C197.086 122.923 195.09 129.286 186.214 122.746L155.738 122.01C155.738 122.01 151.747 123.294 151.204 119.119C151.204 119.119 151.935 110.779 151.564 110.049C151.564 110.049 151.747 107.694 147.743 107.694C147.743 107.694 141.586 108.418 141.403 102.967C141.403 102.967 140.327 97.1632 148.844 97.3565C148.844 97.3565 151.564 98.6219 151.747 95.1672C151.747 95.1672 151.388 71.5792 151.564 69.7779C151.564 69.7779 152.294 67.6112 148.114 67.2405C148.114 67.2405 142.134 68.5059 141.403 64.5272C141.403 64.5272 141.044 58.5405 145.042 58.1699C145.042 58.1699 149.934 58.5405 150.839 57.2632C150.839 57.2632 151.935 57.9805 151.747 53.6485L151.935 46.1952C151.935 46.1952 152.459 44.2059 155.55 44.4005C155.55 44.4005 161.176 44.7592 161.912 44.2059C161.912 44.2059 163.167 42.5819 163.538 41.8445C163.538 41.8445 166.446 41.6685 166.982 42.3979C166.982 42.3979 171.338 45.3005 187.843 44.2059C187.843 44.2059 190.387 44.2058 190.916 44.9365C190.916 44.9365 194.012 47.2899 195.82 44.7592C195.82 44.7592 198.54 44.2059 206.699 44.4005C206.699 44.4005 215.599 46.7485 221.751 41.6685L223.752 42.0339C223.752 42.0339 226.29 46.1952 228.103 44.9365C228.103 44.9365 233.548 44.4005 234.448 45.4832C234.448 45.4832 236.256 48.1859 235.355 55.2845C235.355 55.2845 234.279 58.3579 239.535 58.3579C239.535 58.3579 245.528 57.2632 244.791 62.8845C244.791 62.8845 246.422 69.2365 236.456 68.3352C236.456 68.3352 235.179 70.1485 235.355 71.4205C235.355 71.4205 235.179 92.0885 234.996 94.4605C234.996 94.4605 234.819 97.7285 239.164 97.5392C239.164 97.5392 244.975 97.1632 245.168 102.431C245.168 102.431 245.887 109.325 237.534 108.047C237.534 108.047 234.996 108.418 234.619 110.049L234.279 119.119C234.279 119.119 234.448 123.653 229.38 122.558C228.656 122.558 201.088 123.118 198.723 122.394C198.723 122.394 197.439 122.211 197.086 122.923Z" fill="white"></path><path d="M138.496 153.24C138.496 153.24 139.768 152.704 140.127 151.809C140.127 151.809 143.942 151.437 144.476 150.897L156.456 151.809C156.456 151.809 168.242 152.704 173.322 149.06C173.322 149.06 175.147 149.06 176.418 149.613C176.418 149.613 178.943 150.166 179.667 151.238L186.567 151.056C186.567 151.056 190.558 152.338 190.187 154.881V158.137C190.187 158.137 189.458 164.672 191.271 165.042H196.544C196.544 165.042 200.902 167.033 200.354 169.569C200.354 169.569 200.536 173.184 196.734 173.92C196.734 173.92 192.907 175.002 191.652 174.832C191.652 174.832 190.375 176.457 190.187 178.452L189.658 202.217C189.658 202.217 189.287 204.754 193.102 204.394C193.102 204.394 198.711 203.848 200.354 206.944C200.354 206.944 201.807 212.194 198.906 213.101L196.734 214.178L192.006 214.933C192.006 214.933 190.023 215.097 189.834 218.541V224.88C189.834 224.88 190.023 229.249 186.567 229.249L181.487 229.613C181.487 229.613 180.22 230.685 177.684 229.961C177.684 229.961 146.843 230.519 145.754 230.15L142.123 230.885C142.123 230.885 138.136 234.511 134.87 231.779L132.332 229.784C132.332 229.784 130.514 230.15 129.802 229.961C129.072 229.784 95.6936 230.332 95.6936 230.332C95.6936 230.332 88.6176 231.067 88.0816 228.695C88.0816 228.695 87.1763 219.453 87.5349 218.346C87.5349 218.346 87.5349 215.638 85.9043 215.462C85.9043 215.462 78.8283 215.097 78.6456 214.361C78.6456 214.361 74.8309 211.654 75.9203 208.938C75.9203 208.938 77.1976 205.296 81.0003 204.936C81.0003 204.936 86.8043 205.854 86.8043 204.218C86.8043 204.218 87.1763 203.129 87.1763 201.322C87.1763 201.322 87.5349 179.724 87.3523 178.276C87.3523 178.276 87.8936 175.556 85.5336 175.556C85.5336 175.556 82.9963 176.274 81.3709 175.192C81.3709 175.192 77.0149 175.374 76.1083 171.924C76.1083 171.924 75.3789 169.752 76.4616 167.921C76.4616 167.921 78.4643 163.936 84.2683 165.212C84.2683 165.212 87.5349 166.125 87.8936 163.776L87.7229 155.052C87.7229 155.052 86.9869 152.704 91.5256 151.437C91.5256 151.437 97.3296 153.062 99.1376 150.166C99.1376 150.166 101.139 146.162 102.752 148.884C102.752 148.884 106.214 152.157 115.644 151.809C115.644 151.809 131.974 150.526 132.332 151.238C132.332 151.238 136.324 151.809 137.407 153.062L138.496 153.24Z" fill="white"></path><path d="M89.1815 122.923C89.1815 122.923 87.1802 129.286 78.2922 122.74L47.8215 122.01C47.8215 122.01 43.8308 123.294 43.2828 119.115C43.2828 119.115 44.0135 110.779 43.6362 110.048C43.6362 110.048 43.8308 107.682 39.8335 107.682C39.8335 107.682 33.6762 108.423 33.4988 102.979C33.4988 102.979 32.4042 97.1564 40.9282 97.3564C40.9282 97.3564 43.6362 98.6217 43.8308 95.1737C43.8308 95.1737 43.4655 71.5964 43.6362 69.7724C43.6362 69.7724 44.3775 67.6177 40.2042 67.2457C40.2042 67.2457 34.2108 68.5057 33.4988 64.515C33.4988 64.515 33.1282 58.5404 37.1135 58.1697C37.1135 58.1697 42.0122 58.5404 42.9242 57.2857C42.9242 57.2857 44.0135 57.987 43.8308 53.6297L44.0135 46.2017C44.0135 46.2017 44.5602 44.2057 47.6268 44.3884C47.6268 44.3884 53.2668 44.747 53.9962 44.2057C53.9962 44.2057 55.2628 42.5817 55.6095 41.8444C55.6095 41.8444 58.5295 41.6737 59.0708 42.3804C59.0708 42.3804 63.4148 45.3004 79.9388 44.2057C79.9388 44.2057 82.4642 44.2057 83.0122 44.9364C83.0122 44.9364 86.0908 47.2897 87.9042 44.747C87.9042 44.747 90.6242 44.2057 98.7935 44.3884C98.7935 44.3884 107.666 46.743 113.842 41.6737L115.831 42.0457C115.831 42.0457 118.368 46.2017 120.199 44.9364C120.199 44.9364 125.632 44.3884 126.544 45.483C126.544 45.483 128.363 48.203 127.439 55.2844C127.439 55.2844 126.361 58.363 131.619 58.363C131.619 58.363 137.599 57.2857 136.882 62.8844C136.882 62.8844 138.517 69.2363 128.54 68.335C128.54 68.335 127.263 70.1537 127.439 71.4204C127.439 71.4204 127.263 92.0883 127.086 94.4603C127.086 94.4603 126.91 97.7043 131.26 97.539C131.26 97.539 137.064 97.1563 137.24 102.438C137.24 102.438 137.964 109.324 129.628 108.047C129.628 108.047 127.086 108.423 126.715 110.048L126.362 119.115C126.362 119.115 126.544 123.652 121.452 122.57C120.728 122.57 93.1735 123.106 90.8055 122.394C90.8055 122.394 89.5402 122.211 89.1815 122.923Z" fill="white"></path><path d="M197.086 122.923C197.086 122.923 195.09 129.286 186.214 122.746L155.738 122.01C155.738 122.01 151.747 123.294 151.204 119.119C151.204 119.119 151.935 110.779 151.564 110.049C151.564 110.049 151.747 107.694 147.743 107.694C147.743 107.694 141.586 108.418 141.403 102.967C141.403 102.967 140.327 97.1632 148.844 97.3565C148.844 97.3565 151.564 98.6219 151.747 95.1672C151.747 95.1672 151.388 71.5792 151.564 69.7779C151.564 69.7779 152.294 67.6112 148.114 67.2405C148.114 67.2405 142.134 68.5059 141.403 64.5272C141.403 64.5272 141.044 58.5405 145.042 58.1699C145.042 58.1699 149.934 58.5405 150.839 57.2632C150.839 57.2632 151.935 57.9805 151.747 53.6485L151.935 46.1952C151.935 46.1952 152.459 44.2059 155.55 44.4005C155.55 44.4005 161.176 44.7592 161.912 44.2059C161.912 44.2059 163.167 42.5819 163.538 41.8445C163.538 41.8445 166.446 41.6685 166.982 42.3979C166.982 42.3979 171.338 45.3005 187.843 44.2059C187.843 44.2059 190.387 44.2058 190.916 44.9365C190.916 44.9365 194.012 47.2899 195.82 44.7592C195.82 44.7592 198.54 44.2059 206.699 44.4005C206.699 44.4005 215.599 46.7485 221.751 41.6685L223.752 42.0339C223.752 42.0339 226.29 46.1952 228.103 44.9365C228.103 44.9365 233.548 44.4005 234.448 45.4832C234.448 45.4832 236.256 48.1859 235.355 55.2845C235.355 55.2845 234.279 58.3579 239.535 58.3579C239.535 58.3579 245.528 57.2632 244.791 62.8845C244.791 62.8845 246.422 69.2365 236.456 68.3352C236.456 68.3352 235.179 70.1485 235.355 71.4205C235.355 71.4205 235.179 92.0885 234.996 94.4605C234.996 94.4605 234.819 97.7285 239.164 97.5392C239.164 97.5392 244.975 97.1632 245.168 102.431C245.168 102.431 245.887 109.325 237.534 108.047C237.534 108.047 234.996 108.418 234.619 110.049L234.279 119.119C234.279 119.119 234.448 123.653 229.38 122.558C228.656 122.558 201.088 123.118 198.723 122.394C198.723 122.394 197.439 122.211 197.086 122.923Z" fill="#12110C"></path><path d="M197.085 122.928C197.085 122.928 195.089 129.292 186.213 122.752L155.731 122.016C155.731 122.016 151.74 123.299 151.199 119.12C151.199 119.12 151.935 110.779 151.557 110.048C151.557 110.048 151.74 107.694 147.743 107.694C147.743 107.694 141.58 108.424 141.397 102.972C141.397 102.972 140.32 97.1683 148.837 97.3563C148.837 97.3563 151.557 98.623 151.74 95.1736C151.74 95.1736 151.381 71.5843 151.557 69.7776C151.557 69.7776 152.293 67.6056 148.113 67.2403C148.113 67.2403 142.127 68.507 141.397 64.527C141.397 64.527 141.044 58.5336 145.035 58.1696C145.035 58.1696 149.927 58.5336 150.835 57.263C150.835 57.263 151.935 57.9803 151.74 53.6416L151.935 46.1896C151.935 46.1896 152.452 44.2003 155.555 44.395C155.555 44.395 161.176 44.7536 161.907 44.2003C161.907 44.2003 163.161 42.5816 163.537 41.8443C163.537 41.8443 166.44 41.663 166.981 42.3936C166.981 42.3936 171.332 45.295 187.843 44.2003C187.843 44.2003 190.387 44.2003 190.916 44.9296C190.916 44.9296 194.012 47.2843 195.82 44.7536C195.82 44.7536 198.54 44.2003 206.699 44.395C206.699 44.395 215.599 46.743 221.756 41.663L223.759 42.0216C223.759 42.0216 226.295 46.1896 228.103 44.9296C228.103 44.9296 233.548 44.395 234.448 45.471C234.448 45.471 236.261 48.1856 235.361 55.2723C235.361 55.2723 234.279 58.3576 239.54 58.3576C239.54 58.3576 245.528 57.263 244.791 62.879C244.791 62.879 246.421 69.2363 236.456 68.3296C236.456 68.3296 235.184 70.143 235.361 71.4203C235.361 71.4203 235.184 92.0883 235.001 94.455C235.001 94.455 234.819 97.7216 239.169 97.5456C239.169 97.5456 244.985 97.1683 245.173 102.431C245.173 102.431 245.887 109.324 237.539 108.047C237.539 108.047 235.001 108.424 234.625 110.048L234.279 119.12C234.279 119.12 234.448 123.659 229.387 122.564C228.663 122.564 201.088 123.118 198.723 122.394C198.723 122.394 197.439 122.216 197.085 122.928Z" stroke="#12110C" stroke-width="0.0133333"></path><path d="M162.807 48.1911C162.807 48.1911 163.166 51.8231 163.166 52.7418C163.166 53.6418 162.631 105.151 162.631 105.151C162.631 105.151 163.166 109.142 159.734 111.143C159.734 111.143 158.815 111.496 158.645 108.959L158.999 54.5605C158.999 54.5605 159.363 47.8311 162.807 48.1911Z" fill="white"></path><path d="M162.813 48.1852C162.813 48.1852 163.166 51.8172 163.166 52.7359C163.166 53.6412 162.637 105.157 162.637 105.157C162.637 105.157 163.166 109.148 159.734 111.143C159.734 111.143 158.815 111.503 158.633 108.965L158.998 54.5546C158.998 54.5546 159.357 47.8252 162.813 48.1852Z" stroke="#12110C" stroke-width="0.016"></path><path d="M156.825 111.68C156.825 111.68 157.185 60.5302 157.015 59.6235C156.825 58.7289 157.185 60.3649 157.185 60.3649C157.185 60.3649 156.643 51.4635 159.004 47.8262C159.004 47.8262 158.268 44.7595 154.1 48.5622L153.917 55.9902C153.917 55.9902 153.917 60.1702 150.115 59.9875C150.115 59.9875 145.759 59.7995 143.763 61.7955C143.763 61.7955 142.675 65.7915 146.841 65.0742C146.841 65.0742 153.376 65.0742 153.741 67.7755L153.376 95.1729C153.376 95.1729 154.829 99.7289 149.756 99.7289C149.756 99.7289 143.569 99.3409 143.763 103.15C143.763 103.15 145.04 106.41 150.297 105.333C150.297 105.333 154.1 106.045 153.917 109.689V116.577C153.917 116.577 153.552 119.314 157.185 119.485H185.481C185.481 119.485 186.924 119.661 186.924 117.848C186.924 117.848 186.748 116.401 184.575 116.401L160.999 116.036C160.999 116.036 157.185 117.313 156.825 111.68Z" fill="white"></path><path d="M162.271 111.597C162.271 111.597 161.541 114.134 164.26 113.604H182.945L188.013 114.705C188.013 114.705 193.271 113.422 188.013 110.525C188.013 110.525 171.331 110.69 169.883 110.337C169.883 110.337 166.433 109.436 165.691 109.254C165.691 109.254 163.896 108.53 162.271 111.597Z" fill="white"></path><path d="M162.265 111.597C162.265 111.597 161.535 114.14 164.254 113.61H182.945L188.014 114.71C188.014 114.71 193.275 113.422 188.014 110.52C188.014 110.52 171.33 110.684 169.875 110.337C169.875 110.337 166.427 109.43 165.691 109.248C165.691 109.248 163.89 108.524 162.265 111.597Z" stroke="#12110C" stroke-width="0.016"></path><path d="M193.277 114.14C193.277 114.14 189.833 114.14 190.011 118.684C190.011 118.684 190.375 122.116 194.001 122.116C194.001 122.116 197.256 121.581 196.909 117.955C196.909 117.955 194.908 113.421 193.277 114.14Z" fill="white"></path><path d="M195.82 112.333C195.82 112.333 197.451 110.526 198.546 110.526C198.546 110.526 216.683 112.15 219.744 109.978C219.744 109.978 222.482 109.437 223.211 109.978C223.211 109.978 225.926 112.15 225.926 113.422C225.926 113.422 225.748 115.063 222.482 114.134C222.482 114.134 201.984 114.334 200.895 114.334C200.895 114.334 195.262 115.594 195.82 112.333Z" fill="white"></path><path d="M195.814 112.333C195.814 112.333 197.445 110.519 198.54 110.519C198.54 110.519 216.682 112.145 219.75 109.971C219.75 109.971 222.486 109.43 223.217 109.971C223.217 109.971 225.93 112.145 225.93 113.427C225.93 113.427 225.754 115.07 222.486 114.139C222.486 114.139 201.978 114.339 200.889 114.339C200.889 114.339 195.256 115.599 195.814 112.333Z" stroke="#12110C" stroke-width="0.016"></path><path d="M198.174 118.213C198.174 118.213 198.174 116.747 200.716 116.747L226.1 116.571C226.1 116.571 228.467 117.843 228.467 113.497C228.467 113.497 229.396 93.7253 229.479 71.956C229.508 65.4746 229.803 58.676 229.574 52.376C229.574 52.376 229.008 49.6506 228.279 49.0973C228.279 49.0973 228.279 46.2013 231.368 47.2906C231.368 47.2906 234.088 47.4733 233.364 51.6586L233.552 57.98C233.552 57.98 233.006 60.7173 237.891 59.9826C237.891 59.9826 242.783 60.7173 242.978 62.5186C242.978 62.5186 244.426 66.1626 238.632 65.792H234.442C234.442 65.792 232.635 66.876 233.176 69.06L232.635 95.3666C232.635 95.3666 232.27 99.8933 236.626 99.7226C236.626 99.7226 241.152 99.5346 242.064 100.989C242.064 100.989 245.167 105.521 238.444 105.157C238.444 105.157 234.271 104.968 233.364 105.704C233.364 105.704 232.635 106.604 232.092 115.14C232.092 115.14 232.463 120.22 228.648 119.661C228.648 119.661 203.431 120.02 201.076 119.485C201.076 119.485 198.539 120.22 198.174 118.213Z" fill="white"></path><path d="M165.533 46.5427L164.985 104.785C164.985 104.785 164.809 107.488 169.343 108.035C169.343 108.035 174.599 108.576 175.859 108.035C175.859 108.035 179.327 107.847 188.197 108.217C188.197 108.217 190.387 110.413 190.569 107.671C190.569 107.671 192.005 60.5294 191.3 50.7107C191.3 50.7107 191.1 46.5427 188.027 46.3601C188.027 46.3601 174.24 47.4734 172.969 46.3601L167.524 44.9241C167.524 44.9241 165.345 45.1001 165.533 46.5427Z" fill="white"></path><path d="M194.183 49.457C194.183 49.457 193.642 76.8477 193.823 77.7544L193.465 100.784L192.729 108.772C192.729 108.772 193.823 110.401 194.731 109.318C194.731 109.318 200.535 107.846 204.161 108.418C204.161 108.418 215.782 109.496 218.13 107.67C218.13 107.67 219.949 108.577 220.479 105.674C220.479 105.674 221.197 54.9024 220.862 53.9957C220.862 53.9957 221.562 46.7197 221.197 46.013C221.197 46.013 221.038 44.3824 217.947 45.825C217.947 45.825 218.301 47.285 201.082 46.7197C201.082 46.7197 194.554 46.5424 194.183 49.457Z" fill="white"></path><path d="M223.033 48.7388L222.857 106.045C222.857 106.045 224.305 111.143 226.66 110.608C226.66 110.608 227.013 109.507 227.189 107.693L227.925 53.0895C227.925 53.0895 226.1 44.4002 223.033 48.7388Z" fill="white"></path><path d="M223.028 48.733L222.852 106.052C222.852 106.052 224.305 111.15 226.66 110.614C226.66 110.614 227.02 109.513 227.196 107.7L227.925 53.0837C227.925 53.0837 226.101 44.3943 223.028 48.733Z" stroke="#12110C" stroke-width="0.016"></path><path d="M200.759 65.8983C200.218 64.4503 203.843 64.2676 203.843 64.2676L205.663 64.6263C206.935 64.4503 208.206 64.997 208.206 64.997C209.472 66.9876 207.294 68.0703 207.294 68.0703L206.57 70.437C206.382 72.4383 206.57 89.669 206.57 89.669C206.935 90.5636 208.383 92.189 208.383 92.189C208.383 93.8303 206.382 93.4716 206.382 93.4716L201.13 93.6543C199.494 93.4716 200.035 91.6516 200.035 91.6516C201.848 90.7463 202.396 87.473 202.396 87.473V69.525L200.759 65.8983Z" fill="#12110C"></path><path d="M176.276 82.7695L175.918 88.3908L177.536 91.1055C178.638 92.5535 176.818 93.6548 176.818 93.6548L171.014 93.1121C169.936 92.5535 171.014 90.7455 171.014 90.7455C172.468 89.8521 172.65 87.4788 172.65 87.4788L172.468 76.9601L172.65 69.3428C172.65 68.4295 171.202 66.8108 171.202 66.8108C169.936 66.6281 170.295 64.9975 170.295 64.9975C170.655 64.0855 173.727 64.6268 173.727 64.6268H181.356C188.615 66.9881 187.526 72.2495 187.526 72.2495C188.074 77.5015 182.451 79.6908 182.451 79.6908L182.075 82.5935L187.343 90.9228C188.25 91.6521 188.074 92.3881 188.074 92.3881C187.343 94.3841 184.435 92.3881 184.435 92.3881L177.914 82.2228C177.366 81.4921 176.276 82.7695 176.276 82.7695ZM176.459 68.4295C176.635 72.4321 176.635 77.8721 176.635 77.8721C180.091 80.5975 182.075 76.7775 182.075 76.7775C186.602 72.4321 182.075 68.4295 181.356 67.3521C180.62 66.2575 176.995 67.1641 176.995 67.1641L176.459 68.4295Z" fill="#12110C"></path><path d="M138.496 153.24C138.496 153.24 139.768 152.704 140.127 151.809C140.127 151.809 143.942 151.437 144.476 150.897L156.456 151.809C156.456 151.809 168.242 152.704 173.322 149.06C173.322 149.06 175.147 149.06 176.418 149.613C176.418 149.613 178.943 150.166 179.667 151.238L186.567 151.056C186.567 151.056 190.558 152.338 190.187 154.881V158.137C190.187 158.137 189.458 164.672 191.271 165.042H196.544C196.544 165.042 200.902 167.033 200.354 169.569C200.354 169.569 200.536 173.184 196.734 173.92C196.734 173.92 192.907 175.002 191.652 174.832C191.652 174.832 190.375 176.457 190.187 178.452L189.658 202.217C189.658 202.217 189.287 204.754 193.102 204.394C193.102 204.394 198.711 203.848 200.354 206.944C200.354 206.944 201.807 212.194 198.906 213.101L196.734 214.178L192.006 214.933C192.006 214.933 190.023 215.097 189.834 218.541V224.88C189.834 224.88 190.023 229.249 186.567 229.249L181.487 229.613C181.487 229.613 180.22 230.685 177.684 229.961C177.684 229.961 146.843 230.519 145.754 230.15L142.123 230.885C142.123 230.885 138.136 234.511 134.87 231.779L132.332 229.784C132.332 229.784 130.514 230.15 129.802 229.961C129.072 229.784 95.6936 230.332 95.6936 230.332C95.6936 230.332 88.6176 231.067 88.0816 228.695C88.0816 228.695 87.1763 219.453 87.5349 218.346C87.5349 218.346 87.5349 215.638 85.9043 215.462C85.9043 215.462 78.8283 215.097 78.6456 214.361C78.6456 214.361 74.8309 211.654 75.9203 208.938C75.9203 208.938 77.1976 205.296 81.0003 204.936C81.0003 204.936 86.8043 205.854 86.8043 204.218C86.8043 204.218 87.1763 203.129 87.1763 201.322C87.1763 201.322 87.5349 179.724 87.3523 178.276C87.3523 178.276 87.8936 175.556 85.5336 175.556C85.5336 175.556 82.9963 176.274 81.3709 175.192C81.3709 175.192 77.0149 175.374 76.1083 171.924C76.1083 171.924 75.3789 169.752 76.4616 167.921C76.4616 167.921 78.4643 163.936 84.2683 165.212C84.2683 165.212 87.5349 166.125 87.8936 163.776L87.7229 155.052C87.7229 155.052 86.9869 152.704 91.5256 151.437C91.5256 151.437 97.3296 153.062 99.1376 150.166C99.1376 150.166 101.139 146.162 102.752 148.884C102.752 148.884 106.214 152.157 115.644 151.809C115.644 151.809 131.974 150.526 132.332 151.238C132.332 151.238 136.324 151.809 137.407 153.062L138.496 153.24Z" fill="#12110C"></path><path d="M138.495 153.016C138.495 153.016 139.754 152.486 140.126 151.58C140.126 151.58 143.934 151.209 144.475 150.666L156.45 151.58C156.45 151.58 168.24 152.486 173.32 148.842C173.32 148.842 175.146 148.842 176.416 149.396C176.416 149.396 178.948 149.942 179.66 151.014L186.571 150.837C186.571 150.837 190.556 152.121 190.186 154.657V157.92C190.186 157.92 189.462 164.453 191.275 164.813H196.543C196.543 164.813 200.894 166.814 200.358 169.352C200.358 169.352 200.54 172.966 196.732 173.702C196.732 173.702 192.912 174.785 191.658 174.608C191.658 174.608 190.38 176.238 190.186 178.234L189.65 202.005C189.65 202.005 189.286 204.53 193.094 204.177C193.094 204.177 198.71 203.642 200.358 206.72C200.358 206.72 201.812 211.977 198.91 212.889L196.732 213.973L192.004 214.709C192.004 214.709 190.015 214.885 189.839 218.317V224.681C189.839 224.681 190.015 229.03 186.571 229.03L181.491 229.396C181.491 229.396 180.219 230.48 177.683 229.756C177.683 229.756 146.842 230.302 145.752 229.926L142.115 230.661C142.115 230.661 138.135 234.293 134.868 231.556L132.326 229.56C132.326 229.56 130.512 229.926 129.795 229.756C129.064 229.56 95.6922 230.12 95.6922 230.12C95.6922 230.12 88.6109 230.85 88.0696 228.484C88.0696 228.484 87.1682 219.229 87.5269 218.134C87.5269 218.134 87.5269 215.426 85.8909 215.244C85.8909 215.244 78.8216 214.885 78.6336 214.154C78.6336 214.154 74.8242 211.43 75.9122 208.716C75.9122 208.716 77.1896 205.078 80.9989 204.712C80.9989 204.712 86.7976 205.644 86.7976 203.988C86.7976 203.988 87.1682 202.905 87.1682 201.104C87.1682 201.104 87.5269 179.506 87.3509 178.057C87.3509 178.057 87.8922 175.326 85.5256 175.326C85.5256 175.326 82.9896 176.05 81.3576 174.973C81.3576 174.973 77.0082 175.15 76.1016 171.706C76.1016 171.706 75.3656 169.534 76.4602 167.709C76.4602 167.709 78.4509 163.717 84.2602 164.989C84.2602 164.989 87.5269 165.908 87.8922 163.553L87.7096 154.834C87.7096 154.834 86.9802 152.486 91.5189 151.209C91.5189 151.209 97.3229 152.845 99.1362 149.942C99.1362 149.942 101.126 145.946 102.751 148.654C102.751 148.654 106.212 151.928 115.636 151.58C115.636 151.58 131.972 150.296 132.326 151.014C132.326 151.014 136.323 151.58 137.406 152.845L138.495 153.016Z" stroke="#12110C" stroke-width="0.0133333"></path><path d="M143.21 224.527C143.21 224.527 145.394 223.426 146.848 223.803C148.302 224.163 169.518 223.626 169.518 223.626C169.518 223.626 178.766 224.345 180.226 223.061L182.386 222.343C182.386 222.343 183.298 221.261 183.298 219.818C183.298 218.353 183.48 213.454 183.48 213.454L184.034 211.654C184.034 211.654 183.846 209.839 184.034 161.398C184.034 161.398 184.746 157.607 182.386 155.235C182.386 155.235 182.386 153.798 183.11 153.97C183.846 154.165 183.48 154.165 183.48 154.165C183.48 154.165 186.742 153.239 187.278 154.51C187.278 154.51 188.743 158.849 187.466 161.398C187.466 161.398 187.1 166.666 189.844 166.666C189.844 166.666 190.915 167.762 193.094 167.209C193.094 167.209 197.808 167.762 197.808 169.198C197.808 169.198 197.808 172.477 194.542 171.93L190.18 172.282C190.18 172.282 187.278 172.842 187.648 176.275C188.019 179.723 187.466 204.394 187.466 204.394C187.466 204.394 187.466 207.309 192.011 207.126C192.011 207.126 197.627 206.938 197.627 208.562C197.627 208.562 199.074 212.189 195.09 212.378C195.09 212.378 187.466 212.189 188.019 214.361C188.019 214.361 187.466 219.453 187.1 220.347C187.1 220.347 187.843 224.527 186.919 225.258C186.919 225.258 186.383 227.606 181.491 227.247C181.491 227.247 150.298 227.07 145.394 227.43C145.394 227.43 142.486 227.07 143.21 224.527Z" fill="white"></path><path d="M137.6 221.083C137.6 221.083 140.678 221.619 140.678 224.527C140.678 227.423 140.861 229.059 139.037 229.419C137.229 229.783 135.24 229.249 134.704 226.893C134.145 224.527 135.05 221.619 137.6 221.083Z" fill="white"></path><path d="M141.22 219.635C141.22 219.635 144.482 217.445 145.752 217.823C145.752 217.823 162.254 218.899 167.346 218.01C172.419 217.098 169.335 217.823 169.335 217.823C169.335 217.823 173.692 217.823 174.951 216.179C174.951 216.179 176.228 215.831 176.952 217.098L179.66 220.011C179.66 220.011 179.866 221.807 176.77 221.625C176.77 221.625 147.195 221.625 146.3 221.807C146.3 221.807 140.679 222.702 141.22 219.635Z" fill="white"></path><path d="M141.214 219.635C141.214 219.635 144.476 217.445 145.746 217.817C145.746 217.817 162.26 218.899 167.345 218.01C172.426 217.093 169.334 217.817 169.334 217.817C169.334 217.817 173.697 217.817 174.957 216.167C174.957 216.167 176.229 215.827 176.958 217.093L179.666 220.011C179.666 220.011 179.866 221.814 176.776 221.625C176.776 221.625 147.201 221.625 146.294 221.814C146.294 221.814 140.673 222.709 141.214 219.635Z" stroke="#12110C" stroke-width="0.016"></path><path d="M98.2353 155.241C98.2353 155.241 99.5073 155.241 99.3233 157.419L98.954 212.194C98.954 212.194 99.5073 215.831 96.422 218.181C96.422 218.181 94.7793 220.17 94.7793 217.098L95.5206 161.227C95.5206 161.227 95.6926 157.053 98.2353 155.241Z" fill="white"></path><path d="M98.2356 155.235C98.2356 155.235 99.5076 155.235 99.3356 157.413L98.9542 212.201C98.9542 212.201 99.5076 215.838 96.4169 218.187C96.4169 218.187 94.7676 220.177 94.7676 217.103L95.5102 161.227C95.5102 161.227 95.6862 157.047 98.2356 155.235Z" stroke="#12110C" stroke-width="0.016"></path><path d="M95.3333 155.605C95.3333 155.605 93.1547 159.603 93.3373 160.516L93.1547 172.653C93.1547 172.653 92.972 180.453 93.1547 181.365C93.3373 182.267 92.972 205.125 92.972 205.125C92.972 205.125 92.7907 209.468 92.972 210.928V220.719C92.972 220.719 92.608 225.08 95.8693 223.973C95.8693 223.973 127.799 223.256 129.8 223.808C129.8 223.808 132.691 224.345 131.619 225.799C131.619 225.799 131.619 227.077 129.605 226.705C129.605 226.705 114.553 228.147 100.955 227.612C100.955 227.612 91.884 228.147 91.3307 227.077C91.3307 227.077 89.888 226.893 89.888 221.625C89.888 221.625 89.888 216.74 89.5347 215.832C89.5347 215.832 89.888 213.26 85.356 212.736C85.356 212.736 79.0093 213.831 78.8267 210.023C78.8267 210.023 79.728 207.303 85.9027 207.656C85.9027 207.656 90.436 208.385 89.5347 204.748L90.0707 177.921C90.0707 177.921 90.6293 173.184 87.5333 172.995C87.5333 172.995 84.6427 172.848 83.7187 173.184C83.7187 173.184 78.4627 173.184 78.8267 170.123C78.8267 170.123 80.64 166.849 85.9027 167.579C85.9027 167.579 89.888 168.299 90.0707 163.776C90.0707 163.776 89.888 154.517 92.06 154.164C92.06 154.164 96.6053 154.328 95.3333 155.605Z" fill="white"></path><path d="M100.767 215.638C100.767 215.638 103.31 218.346 107.49 218.187L132.137 218.54C132.137 218.54 134.875 218.734 134.703 220.17C134.703 220.17 134.315 222.343 131.066 221.619L101.314 221.26L98.0419 221.459C98.0419 221.459 95.8632 221.083 99.3246 216.915L100.767 215.638Z" fill="white"></path><path d="M100.761 215.633C100.761 215.633 103.305 218.346 107.49 218.181L132.143 218.541C132.143 218.541 134.874 218.729 134.71 220.17C134.71 220.17 134.327 222.349 131.078 221.631L101.309 221.271L98.0352 221.459C98.0352 221.459 95.8632 221.09 99.3179 216.91L100.761 215.633Z" stroke="#12110C" stroke-width="0.016"></path><path d="M176.953 213.266C176.953 213.266 179.13 217.446 180.22 218.016C180.22 218.016 182.216 220.354 181.674 216.186L182.033 163.942C182.033 163.942 181.485 162.123 182.033 159.232L179.861 155.24C179.861 155.24 177.494 153.428 177.494 156.324L177.136 212.018L176.953 213.266Z" fill="white"></path><path d="M176.947 213.272C176.947 213.272 179.131 217.445 180.226 218.023C180.226 218.023 182.222 220.365 181.681 216.187L182.039 163.929C182.039 163.929 181.491 162.123 182.039 159.232L179.862 155.236C179.862 155.236 177.489 153.428 177.489 156.324L177.13 212.023L176.947 213.272Z" stroke="#12110C" stroke-width="0.016"></path><path d="M136.688 188.43C136.688 188.43 136.87 192.768 136.317 196.931C136.022 199.232 137.052 209.828 136.134 215.262C136.134 215.262 135.969 217.08 132.142 215.456C132.142 215.456 108.932 215.991 108.208 215.262C108.208 215.262 101.862 215.456 101.314 212.183C101.314 212.183 102.221 187.335 101.68 186.411C101.68 186.411 101.314 172.812 101.68 171.547C101.68 171.547 102.221 159.032 101.862 157.583C101.862 157.583 102.045 154.68 101.497 153.222C101.497 153.222 101.497 151.408 104.588 152.492C104.588 152.492 105.66 154.494 111.652 153.604C111.652 153.604 116.013 154.323 120.188 153.775C120.188 153.775 129.429 153.051 131.796 153.775C131.796 153.775 135.428 153.051 136.498 157.054L136.317 168.291L137.4 171.918L138.677 171.016L139.213 168.291L139.396 156.318C139.396 156.318 140.12 154.134 143.033 153.775C143.033 153.775 147.566 153.222 148.302 153.604C149.026 153.952 158.804 154.494 161.541 153.952C164.254 153.41 164.79 155.764 172.968 151.603C172.968 151.603 175.145 151.786 175.145 153.222C175.145 153.222 174.404 168.663 175.145 171.547C175.145 171.547 175.145 199.839 174.58 201.835L174.95 210.904C174.95 210.904 175.31 214.898 168.976 215.262C168.976 215.262 172.968 215.808 147.92 215.084C147.92 215.084 143.934 214.898 139.584 216.887C139.584 216.887 138.677 216.71 138.677 214.355C138.677 214.355 139.396 205.838 138.677 197.478L138.325 188.231L136.688 188.43Z" fill="white"></path><path d="M120.357 175.561C120.357 175.561 120.905 188.978 120.357 190.79L120.186 193.7C120.186 193.7 120.905 195.682 121.994 196.418C121.994 196.418 122.906 198.949 120.722 198.773C120.722 198.773 116.196 198.408 115.106 198.58C115.106 198.58 112.557 198.58 115.106 195.334C115.106 195.334 116.013 194.045 115.825 190.79C115.825 190.79 115.825 175.561 116.196 174.661C116.196 174.661 116.554 172.653 115.282 172.106L113.098 172.294L110.39 174.832C110.39 174.832 109.837 177.564 108.566 174.661V173.196L110.209 168.845L111.298 168.656C111.298 168.656 112.922 169.746 114.37 170.122H122.906L125.985 168.656C125.985 168.656 127.25 168.845 126.904 170.476C126.904 170.476 127.433 174.661 125.078 175.192C125.078 175.192 123.625 174.661 122.906 172.653C122.906 172.653 120.546 171.394 120.357 175.561Z" fill="#12110C"></path><path d="M160.441 170.664C160.441 170.664 153.559 170.116 153.389 177.551C153.389 177.551 152.641 182.643 160.27 185.911C160.27 185.911 165.898 188.619 165.521 192.063C165.521 192.063 164.797 198.232 158.81 195.152C158.81 195.152 155.914 193.692 156.107 192.063C156.107 192.063 155.185 190.061 154.101 190.431C154.101 190.431 152.823 190.785 153.389 196.777C153.389 196.777 153.389 199.137 156.107 196.777L157.538 197.148C157.538 197.148 162.442 201.139 166.605 196.231C166.605 196.231 171.149 192.063 167.875 186.988C167.875 186.988 165.521 183.373 161.354 181.555C161.354 181.555 157.362 179.724 156.462 176.644C156.462 176.644 157.733 171.193 162.619 174.096C162.619 174.096 164.438 176.275 165.521 176.644C165.521 176.644 166.975 176.644 166.605 173.365L166.262 170.664C166.262 170.664 165.898 168.644 163.349 170.664C163.349 170.664 160.989 171.559 160.441 170.664Z" fill="#12110C"></path><path d="M138.318 166.844C139.584 167.768 139.767 169.576 139.767 169.576C143.393 179.182 146.484 193.162 146.484 193.162C147.384 194.958 149.021 196.418 149.021 196.418C152.105 197.501 149.021 198.402 149.021 198.402C147.749 198.956 143.588 198.237 143.588 198.237C141.397 197.849 142.298 197.142 142.298 197.142C143.216 196.236 142.487 192.597 142.487 192.597C142.299 191.161 140.68 188.796 140.68 188.796C139.956 188.429 138.684 190.061 138.684 190.061C138.684 190.061 136.695 190.79 136.5 190.061C136.317 189.324 135.052 188.637 135.052 188.637C132.873 188.637 131.973 194.045 131.973 194.045C133.239 198.585 131.973 197.849 131.973 197.849C130.891 199.316 127.435 198.237 127.435 198.237C125.804 197.849 126.904 196.584 126.904 196.584C128.888 196.236 129.429 194.045 129.429 194.045C130.343 192.78 136.134 169.205 136.134 169.205C136.694 168.109 137.046 165.937 138.318 166.844ZM135.429 178.812C135.24 179.724 133.963 184.804 133.963 184.804L135.052 186.634C135.052 186.634 137.96 186.8 139.043 186.8C140.12 186.8 140.314 185.91 140.314 184.985C140.314 184.086 138.318 178.646 138.318 178.646L137.401 177.557L135.429 178.812Z" fill="#12110C"></path><path d="M89.1815 122.923C89.1815 122.923 87.1802 129.286 78.2922 122.74L47.8215 122.01C47.8215 122.01 43.8308 123.294 43.2828 119.115C43.2828 119.115 44.0135 110.779 43.6362 110.048C43.6362 110.048 43.8308 107.682 39.8335 107.682C39.8335 107.682 33.6762 108.423 33.4988 102.979C33.4988 102.979 32.4042 97.1564 40.9282 97.3564C40.9282 97.3564 43.6362 98.6217 43.8308 95.1737C43.8308 95.1737 43.4655 71.5964 43.6362 69.7724C43.6362 69.7724 44.3775 67.6177 40.2042 67.2457C40.2042 67.2457 34.2108 68.5057 33.4988 64.515C33.4988 64.515 33.1282 58.5404 37.1135 58.1697C37.1135 58.1697 42.0122 58.5404 42.9242 57.2857C42.9242 57.2857 44.0135 57.987 43.8308 53.6297L44.0135 46.2017C44.0135 46.2017 44.5602 44.2057 47.6268 44.3884C47.6268 44.3884 53.2668 44.747 53.9962 44.2057C53.9962 44.2057 55.2628 42.5817 55.6095 41.8444C55.6095 41.8444 58.5295 41.6737 59.0708 42.3804C59.0708 42.3804 63.4148 45.3004 79.9388 44.2057C79.9388 44.2057 82.4642 44.2057 83.0122 44.9364C83.0122 44.9364 86.0908 47.2897 87.9042 44.747C87.9042 44.747 90.6242 44.2057 98.7935 44.3884C98.7935 44.3884 107.666 46.743 113.842 41.6737L115.831 42.0457C115.831 42.0457 118.368 46.2017 120.199 44.9364C120.199 44.9364 125.632 44.3884 126.544 45.483C126.544 45.483 128.363 48.203 127.439 55.2844C127.439 55.2844 126.361 58.363 131.619 58.363C131.619 58.363 137.599 57.2857 136.882 62.8844C136.882 62.8844 138.517 69.2363 128.54 68.335C128.54 68.335 127.263 70.1537 127.439 71.4204C127.439 71.4204 127.263 92.0883 127.086 94.4603C127.086 94.4603 126.91 97.7043 131.26 97.539C131.26 97.539 137.064 97.1563 137.24 102.438C137.24 102.438 137.964 109.324 129.628 108.047C129.628 108.047 127.086 108.423 126.715 110.048L126.362 119.115C126.362 119.115 126.544 123.652 121.452 122.57C120.728 122.57 93.1735 123.106 90.8055 122.394C90.8055 122.394 89.5402 122.211 89.1815 122.923Z" fill="#12110C"></path><path d="M89.1824 122.928C89.1824 122.928 87.181 129.292 78.293 122.746L47.817 122.016C47.817 122.016 43.825 123.299 43.2784 119.115C43.2784 119.115 44.0144 110.779 43.637 110.048C43.637 110.048 43.825 107.688 39.8277 107.688C39.8277 107.688 33.6704 108.43 33.4944 102.984C33.4944 102.984 32.405 97.1563 40.929 97.3563C40.929 97.3563 43.637 98.6229 43.825 95.1789C43.825 95.1789 43.4597 71.591 43.637 69.7723C43.637 69.7723 44.3784 67.611 40.1997 67.2456C40.1997 67.2456 34.2064 68.507 33.4944 64.5096C33.4944 64.5096 33.1237 58.5336 37.1144 58.1696C37.1144 58.1696 42.0064 58.5336 42.925 57.275C42.925 57.275 44.0144 57.987 43.825 53.6296L44.0144 46.195C44.0144 46.195 44.5557 44.2003 47.6277 44.3883C47.6277 44.3883 53.2624 44.7416 53.9917 44.2003C53.9917 44.2003 55.2637 42.5816 55.6104 41.8443C55.6104 41.8443 58.5237 41.6683 59.0717 42.3803C59.0717 42.3803 63.4104 45.295 79.9397 44.2003C79.9397 44.2003 82.465 44.2003 83.013 44.9296C83.013 44.9296 86.0917 47.2843 87.905 44.7416C87.905 44.7416 90.6304 44.2003 98.7944 44.3883C98.7944 44.3883 107.673 46.731 113.842 41.6683L115.837 42.039C115.837 42.039 118.374 46.195 120.2 44.9296C120.2 44.9296 125.633 44.3883 126.557 45.471C126.557 45.471 128.364 48.1976 127.446 55.2723C127.446 55.2723 126.362 58.363 131.62 58.363C131.62 58.363 137.612 57.275 136.882 62.879C136.882 62.879 138.518 69.2363 128.546 68.3296C128.546 68.3296 127.264 70.1483 127.446 71.4203C127.446 71.4203 127.264 92.0883 127.093 94.455C127.093 94.455 126.91 97.7096 131.261 97.5456C131.261 97.5456 137.065 97.1563 137.248 102.443C137.248 102.443 137.965 109.324 129.629 108.047C129.629 108.047 127.093 108.43 126.722 110.048L126.362 119.115C126.362 119.115 126.557 123.659 121.46 122.575C120.736 122.575 93.1744 123.106 90.8064 122.394C90.8064 122.394 89.541 122.216 89.1824 122.928Z" stroke="#12110C" stroke-width="0.0133333"></path><path d="M54.8974 48.2029C54.8974 48.2029 55.2627 51.8229 55.2627 52.7295C55.2627 53.6362 54.7094 105.151 54.7094 105.151C54.7094 105.151 55.2628 109.154 51.8081 111.138C51.8081 111.138 50.9067 111.508 50.7188 108.971L51.0894 54.5549C51.0894 54.5549 51.4481 47.8375 54.8974 48.2029Z" fill="white"></path><path d="M54.9041 48.1972C54.9041 48.1972 55.2681 51.8172 55.2681 52.7239C55.2681 53.6306 54.7147 105.151 54.7147 105.151C54.7147 105.151 55.2681 109.153 51.8081 111.149C51.8081 111.149 50.9067 111.515 50.7188 108.977L51.0774 54.5546C51.0774 54.5546 51.4427 47.8372 54.9041 48.1972Z" stroke="#12110C" stroke-width="0.016"></path><path d="M48.9119 111.68C48.9119 111.68 49.2653 60.5303 49.0946 59.6169C48.9119 58.7223 49.2653 60.3529 49.2653 60.3529C49.2653 60.3529 48.7359 51.4756 51.0893 47.8383C51.0893 47.8383 50.3599 44.7529 46.1866 48.5556L46.0213 55.9969C46.0213 55.9969 46.0213 60.1703 42.2013 59.9876C42.2013 59.9876 37.8453 59.7996 35.8439 61.8076C35.8439 61.8076 34.7599 65.7916 38.9226 65.0743C38.9226 65.0743 45.4626 65.0743 45.8213 67.7756L45.4626 95.1729C45.4626 95.1729 46.9159 99.7063 41.8306 99.7063C41.8306 99.7063 35.6666 99.3583 35.8439 103.168C35.8439 103.168 37.1146 106.434 42.3839 105.34C42.3839 105.34 46.1866 106.069 46.0213 109.678V116.589C46.0213 116.589 45.6386 119.314 49.2653 119.48H77.5679C77.5679 119.48 79.0173 119.661 79.0173 117.842C79.0173 117.842 78.8333 116.412 76.6679 116.412L53.0973 116.036C53.0973 116.036 49.2653 117.308 48.9119 111.68Z" fill="white"></path><path d="M53.8091 112.05C53.8091 112.05 53.0904 114.599 55.7984 114.039H74.4824L79.5624 115.123C79.5624 115.123 84.8371 113.857 79.5624 110.949C79.5624 110.949 62.8744 111.143 61.4197 110.778C61.4197 110.778 57.9824 109.873 57.2531 109.689C57.2531 109.689 55.4344 108.971 53.8091 112.05Z" fill="white"></path><path d="M53.8032 112.044C53.8032 112.044 53.0845 114.604 55.7925 114.034H74.4832L79.5699 115.128C79.5699 115.128 84.8432 113.863 79.5699 110.95C79.5699 110.95 62.8739 111.143 61.4205 110.767C61.4205 110.767 57.9765 109.866 57.2472 109.69C57.2472 109.69 55.4272 108.966 53.8032 112.044Z" stroke="#12110C" stroke-width="0.016"></path><path d="M84.831 114.599C84.831 114.599 81.3763 114.599 81.5577 119.108C81.5577 119.108 81.923 122.575 85.543 122.575C85.543 122.575 88.811 122.011 88.4577 118.401C88.4577 118.401 86.455 113.857 84.831 114.599Z" fill="white"></path><path d="M87.3637 112.768C87.3637 112.768 88.9891 110.955 90.0891 110.955C90.0891 110.955 108.221 112.592 111.305 110.419C111.305 110.419 114.036 109.878 114.749 110.419C114.749 110.419 117.469 112.592 117.469 113.858C117.469 113.858 117.292 115.506 114.036 114.599C114.036 114.599 93.5211 114.77 92.4437 114.77C92.4437 114.77 86.8157 116.035 87.3637 112.768Z" fill="white"></path><path d="M87.3579 112.768C87.3579 112.768 88.9885 110.949 90.0832 110.949C90.0832 110.949 108.221 112.592 111.305 110.419C111.305 110.419 114.042 109.872 114.754 110.419C114.754 110.419 117.474 112.592 117.474 113.863C117.474 113.863 117.298 115.512 114.042 114.599C114.042 114.599 93.5272 114.776 92.4379 114.776C92.4379 114.776 86.8099 116.041 87.3579 112.768Z" stroke="#12110C" stroke-width="0.016"></path><path d="M90.2656 118.213C90.2656 118.213 90.2656 116.771 92.791 116.771L118.204 116.583C118.204 116.583 120.552 117.836 120.552 113.497C120.552 113.497 121.483 93.7187 121.566 71.9494C121.6 65.4747 121.883 58.676 121.636 52.376C121.636 52.376 121.095 49.6627 120.371 49.1027C120.371 49.1027 120.371 46.2014 123.467 47.3014C123.467 47.3014 126.168 47.4734 125.45 51.64L125.627 57.992C125.627 57.992 125.086 60.712 129.983 59.988C129.983 59.988 134.875 60.712 135.051 62.5254C135.051 62.5254 136.518 66.1627 130.719 65.792H126.551C126.551 65.792 124.732 66.876 125.274 69.06L124.732 95.3547C124.732 95.3547 124.355 99.888 128.723 99.7227C128.723 99.7227 133.256 99.5347 134.151 100.983C134.151 100.983 137.247 105.521 130.531 105.157C130.531 105.157 126.356 104.968 125.45 105.692C125.45 105.692 124.732 106.616 124.184 115.129C124.184 115.129 124.543 120.209 120.735 119.661C120.735 119.661 95.5216 120.015 93.1736 119.479C93.1736 119.479 90.6243 120.209 90.2656 118.213Z" fill="white"></path><path d="M57.6065 46.5546L57.0772 104.785C57.0772 104.785 56.8945 107.488 61.4265 108.035C61.4265 108.035 66.6959 108.583 67.9559 108.035C67.9559 108.035 71.3932 107.859 80.2879 108.224C80.2879 108.224 82.4665 110.389 82.6425 107.683C82.6425 107.683 84.0972 60.5119 83.3719 50.7226C83.3719 50.7226 83.1959 46.5546 80.0999 46.3719C80.0999 46.3719 66.3252 47.4559 65.0532 46.3719L59.6199 44.9173C59.6199 44.9173 57.4305 45.0893 57.6065 46.5546Z" fill="white"></path><path d="M115.107 48.7331L114.93 106.057C114.93 106.057 116.384 111.15 118.751 110.608C118.751 110.608 119.11 109.513 119.287 107.688L120.023 53.0837C120.023 53.0837 118.203 44.3757 115.107 48.7331Z" fill="white" stroke="#12110C" stroke-width="0.016"></path><path d="M115.107 48.7331L114.93 106.057C114.93 106.057 116.384 111.15 118.751 110.608C118.751 110.608 119.11 109.513 119.287 107.688L120.023 53.0837C120.023 53.0837 118.203 44.3757 115.107 48.7331Z" stroke="#12110C" stroke-width="0.016"></path><path d="M86.2854 49.2213C86.2854 49.2213 85.7387 76.6067 85.9094 77.5253L85.5667 100.565L84.832 108.524C84.832 108.524 85.9094 110.179 86.8214 109.083C86.8214 109.083 92.632 107.64 96.2574 108.177C96.2574 108.177 107.872 109.272 110.221 107.452C110.221 107.452 112.035 108.353 112.581 105.451C112.581 105.451 113.3 54.672 112.94 53.76C112.94 53.76 113.671 46.5133 113.3 45.796C113.3 45.796 113.117 44.1467 110.051 45.5893C110.051 45.5893 110.403 47.0547 93.1787 46.5133C93.1787 46.5133 86.6454 46.3253 86.2854 49.2213Z" fill="white"></path><path d="M80.6806 65.9986L79.0393 69.46C79.0393 69.46 75.0646 87.044 72.8926 90.664C72.8926 90.664 72.5273 94.3026 69.4433 91.3933C69.4433 91.3933 62.362 69.0893 62.002 68.36L59.642 66.728C59.642 66.728 58.2113 64.7333 60.7366 64.556L67.4473 64.7333C67.4473 64.7333 69.6193 66.54 66.7233 68.5586C66.7233 68.5586 67.0833 71.456 70.8913 82.5053C70.8913 82.5053 71.974 86.6786 73.246 83.5933L76.878 70.7133L75.7886 66.9053C75.7886 66.9053 74.694 65.092 76.3366 64.916C76.3366 64.916 80.146 64.556 80.6806 65.9986Z" fill="#12110C"></path><path d="M91.212 68.9063L91.0174 88.1329L90.488 89.5809C90.488 89.5809 88.6694 91.9303 89.9347 92.1183C89.9347 92.1183 88.316 93.2129 101.537 93.3889C101.537 93.3889 106.629 94.2903 105.352 87.7623C105.352 87.7623 104.811 85.4063 102.985 88.8569C102.985 88.8569 102.444 91.7463 95.928 90.8463C95.928 90.8463 94.4734 89.5809 94.4734 88.1329V80.1449C94.4734 80.1449 94.28 78.1423 97.3694 78.3489C97.3694 78.3489 100.813 80.5156 101.361 79.5969C101.361 79.5969 102.627 76.7063 101.361 74.8876C101.361 74.8876 99.724 74.7169 99.548 75.4409C99.548 75.4409 98.4587 77.6063 95.3747 76.3356C95.3747 76.3356 93.9267 73.4396 94.832 71.0783C94.832 71.0783 94.4734 66.5409 97.5587 66.9103C97.5587 66.9103 101.184 67.6289 101.537 68.7303C101.537 68.7303 102.444 70.9143 103.363 68.3716L102.444 65.2743C102.444 65.2743 101.915 64.0023 101.001 64.3676C101.001 64.3676 94.832 65.2743 94.0974 64.5383L89.1987 65.0916C89.1987 65.0916 88.4814 66.9103 90.6654 67.8063C90.6654 67.8063 91.212 68.1769 91.212 68.9063Z" fill="#12110C"></path></g></g><defs><clipPath id="clip0_878_959"><rect width="1122.52" height="293.66" fill="white"></rect></clipPath></defs></svg>