<svg viewBox="0 0 570 400" fill="none" xmlns="http://www.w3.org/2000/svg" class="group h-full w-full transition-transform duration-500 hover:scale-[1.02]"><rect x="5" y="-146" width="560" height="560" rx="280" fill="url(#paint0_linear_870_30703)" fill-opacity="0.1" class="ring-pulse transition-opacity !duration-500 group-hover:opacity-60" style="animation-delay: 100ms;"></rect><rect x="45" y="-106" width="480" height="480" rx="240" fill="url(#paint1_linear_870_30703)" fill-opacity="0.1" class="ring-pulse transition-opacity !duration-500 group-hover:opacity-60" style="animation-delay: 800ms;"></rect><rect x="85" y="-66" width="400" height="400" rx="200" fill="url(#paint2_linear_870_30703)" fill-opacity="0.1" class="ring-pulse transition-opacity !duration-500 group-hover:opacity-60" style="animation-delay: 600ms;"></rect><rect x="125" y="-26" width="320" height="320" rx="160" fill="url(#paint3_linear_870_30703)" fill-opacity="0.1" class="ring-pulse transition-opacity !duration-500 group-hover:opacity-60" style="animation-delay: 400ms;"></rect><rect x="165" y="14" width="240" height="240" rx="120" fill="url(#paint4_linear_870_30703)" fill-opacity="0.1" class="ring-pulse transition-opacity !duration-500 group-hover:opacity-60" style="animation-delay: 200ms;"></rect><g filter="url(#filter0_d_870_30703)"><rect x="205" y="54" width="160" height="160" rx="80" fill="#08020D" shape-rendering="crispEdges"></rect><rect x="205" y="54" width="160" height="160" rx="80" fill="url(#paint5_linear_870_30703)" fill-opacity="0.2" shape-rendering="crispEdges"></rect><path d="M299.614 129.771H270.374C268.067 129.771 266.197 132.35 266.197 135.531V155.689C266.197 158.87 268.067 161.449 270.374 161.449H299.614C301.921 161.449 303.791 158.87 303.791 155.689V135.531C303.791 132.35 301.921 129.771 299.614 129.771Z" fill="#9203FC" stroke="#9203FC" stroke-width="4.99028" stroke-linecap="round" stroke-linejoin="round"></path><circle cx="284.992" cy="141.979" r="4.80014" fill="#0F0317"></circle><path d="M282.941 144.444H287.044V150.376C287.044 151.509 286.125 152.428 284.992 152.428C283.859 152.428 282.941 151.509 282.941 150.376V144.444Z" fill="#0F0317"></path><path d="M272.525 129.771V119.79C272.525 116.481 273.84 113.308 276.179 110.969C278.519 108.629 281.692 107.314 285.001 107.314C288.31 107.314 291.483 108.629 293.823 110.969C296.162 113.308 297.477 116.481 297.477 119.79V129.771" stroke="#9203FC" stroke-width="7.40372" stroke-linecap="round" stroke-linejoin="round"></path></g><defs><filter id="filter0_d_870_30703" x="185" y="34" width="200" height="200" filterUnits="userSpaceOnUse" color-interpolation-filters="sRGB"><feFlood flood-opacity="0" result="BackgroundImageFix"></feFlood><feColorMatrix in="SourceAlpha" type="matrix" values="0 0 0 0 0 0 0 0 0 0 0 0 0 0 0 0 0 0 127 0" result="hardAlpha"></feColorMatrix><feOffset></feOffset><feGaussianBlur stdDeviation="10"></feGaussianBlur><feComposite in2="hardAlpha" operator="out"></feComposite><feColorMatrix type="matrix" values="0 0 0 0 0.572549 0 0 0 0 0.0117647 0 0 0 0 0.988235 0 0 0 0.5 0"></feColorMatrix><feBlend mode="normal" in2="BackgroundImageFix" result="effect1_dropShadow_870_30703"></feBlend><feBlend mode="normal" in="SourceGraphic" in2="effect1_dropShadow_870_30703" result="shape"></feBlend></filter><linearGradient id="paint0_linear_870_30703" x1="285" y1="-146" x2="285" y2="477.272" gradientUnits="userSpaceOnUse"><stop stop-color="#9203FC"></stop><stop offset="1" stop-color="#9203FC" stop-opacity="0.17"></stop></linearGradient><linearGradient id="paint1_linear_870_30703" x1="285" y1="-106" x2="285" y2="428.233" gradientUnits="userSpaceOnUse"><stop stop-color="#9203FC"></stop><stop offset="1" stop-color="#9203FC" stop-opacity="0.17"></stop></linearGradient><linearGradient id="paint2_linear_870_30703" x1="285" y1="-66" x2="285" y2="379.194" gradientUnits="userSpaceOnUse"><stop stop-color="#9203FC"></stop><stop offset="1" stop-color="#9203FC" stop-opacity="0.17"></stop></linearGradient><linearGradient id="paint3_linear_870_30703" x1="285" y1="-26" x2="285" y2="330.155" gradientUnits="userSpaceOnUse"><stop stop-color="#9203FC"></stop><stop offset="1" stop-color="#9203FC" stop-opacity="0.17"></stop></linearGradient><linearGradient id="paint4_linear_870_30703" x1="285" y1="14" x2="285" y2="281.117" gradientUnits="userSpaceOnUse"><stop stop-color="#9203FC"></stop><stop offset="1" stop-color="#9203FC" stop-opacity="0.17"></stop></linearGradient><linearGradient id="paint5_linear_870_30703" x1="285" y1="54" x2="285" y2="232.078" gradientUnits="userSpaceOnUse"><stop stop-color="#9203FC"></stop><stop offset="1" stop-color="#9203FC" stop-opacity="0.17"></stop></linearGradient></defs></svg>