<svg width="32" height="37" viewBox="0 0 32 37" fill="none" xmlns="http://www.w3.org/2000/svg"><g clip-path="url(#clip0_574_3837)"><path d="M30.5646 28.8665C30.0179 30.1296 29.3707 31.2923 28.6209 32.3613C27.5988 33.8185 26.7619 34.8272 26.117 35.3874C25.1172 36.3068 24.046 36.7777 22.899 36.8044C22.0755 36.8044 21.0824 36.5701 19.9264 36.0948C18.7667 35.6217 17.7008 35.3874 16.7263 35.3874C15.7042 35.3874 14.608 35.6217 13.4355 36.0948C12.2612 36.5701 11.3152 36.8178 10.592 36.8424C9.49198 36.8892 8.39558 36.405 7.30119 35.3874C6.60269 34.7781 5.729 33.7337 4.68236 32.2541C3.55941 30.6741 2.63618 28.842 1.91291 26.7532C1.1383 24.497 0.75 22.3122 0.75 20.1971C0.75 17.7742 1.27354 15.6845 2.32219 13.9333C3.14633 12.5267 4.24273 11.4171 5.61496 10.6026C6.9872 9.78805 8.4699 9.37296 10.0666 9.3464C10.9403 9.3464 12.086 9.61666 13.5098 10.1478C14.9296 10.6807 15.8412 10.951 16.2409 10.951C16.5397 10.951 17.5524 10.635 19.2692 10.005C20.8927 9.42072 22.263 9.17881 23.3855 9.2741C26.4272 9.51958 28.7124 10.7186 30.2321 12.8789C27.5118 14.5271 26.1661 16.8358 26.1929 19.7974C26.2174 22.1042 27.0543 24.0239 28.699 25.5481C29.4444 26.2555 30.2768 26.8023 31.2029 27.1906C31.002 27.773 30.79 28.3309 30.5646 28.8665ZM23.5886 1.41517C23.5886 3.22326 22.928 4.91148 21.6113 6.47407C20.0224 8.33168 18.1005 9.4051 16.0164 9.23572C15.9898 9.0188 15.9744 8.7905 15.9744 8.5506C15.9744 6.81484 16.7301 4.95722 18.072 3.43837C18.7419 2.66935 19.5939 2.02992 20.6272 1.51983C21.6582 1.01736 22.6334 0.73948 23.5506 0.691895C23.5774 0.933608 23.5886 1.17536 23.5886 1.41517Z" fill="#0F0F0F"></path></g></svg>