<svg viewBox="0 0 570 400" fill="none" xmlns="http://www.w3.org/2000/svg" class="group"><g class="ring-pulse transition-opacity group-hover:opacity-50" style="transform: scale(1.04); --fill-opacity-start: 0.6; --fill-opacity-end: 0.2;"><g opacity="0.12"><path d="M-43.2734 265.005C-43.2734 248.704 -30.0582 235.488 -13.7563 235.488H168.256C184.558 235.488 197.773 248.704 197.773 265.005V346.026C197.773 362.327 184.558 375.543 168.256 375.543H-43.2734V265.005Z" fill="#9203FC"></path><path d="M-43.2734 265.005C-43.2734 248.704 -30.0582 235.488 -13.7563 235.488H168.256C184.558 235.488 197.773 248.704 197.773 265.005V346.026C197.773 362.327 184.558 375.543 168.256 375.543H-43.2734V265.005Z" fill="url(#paint0_linear_870_30882)"></path><rect x="-3.91724" y="274.845" width="162.335" height="7.32864" rx="3.66432" fill="#9203FC"></rect><rect x="-3.91724" y="301.852" width="121.355" height="7.32864" rx="3.66432" fill="#9203FC" fill-opacity="0.6"></rect><rect x="-3.91724" y="328.858" width="140.869" height="7.32864" rx="3.66432" fill="#9203FC" fill-opacity="0.6"></rect></g><g opacity="0.12"><path d="M231.445 273.455C231.445 252.486 248.443 235.488 269.412 235.488H503.526C524.494 235.488 541.492 252.486 541.492 273.455V377.667C541.492 398.635 524.494 415.633 503.526 415.633H231.445V273.455Z" fill="#9203FC"></path><path d="M231.445 273.455C231.445 252.486 248.443 235.488 269.412 235.488H503.526C524.494 235.488 541.492 252.486 541.492 273.455V377.667C541.492 398.635 524.494 415.633 503.526 415.633H231.445V273.455Z" fill="url(#paint1_linear_870_30882)"></path><rect x="282.067" y="286.11" width="208.803" height="9.42648" rx="4.71324" fill="#9203FC"></rect><rect x="282.067" y="320.848" width="156.092" height="9.42648" rx="4.71324" fill="#9203FC" fill-opacity="0.6"></rect><rect x="282.067" y="355.585" width="181.193" height="9.42648" rx="4.71324" fill="#9203FC" fill-opacity="0.6"></rect></g><g opacity="0.12"><path d="M480.73 122.625C480.73 109.37 491.476 98.625 504.73 98.625H635.27C648.524 98.625 659.27 109.37 659.27 122.625V188.501C659.27 201.756 648.524 212.501 635.27 212.501H480.73V122.625Z" fill="#9203FC"></path><path d="M480.73 122.625C480.73 109.37 491.476 98.625 504.73 98.625H635.27C648.524 98.625 659.27 109.37 659.27 122.625V188.501C659.27 201.756 648.524 212.501 635.27 212.501H480.73V122.625Z" fill="url(#paint2_linear_870_30882)"></path><rect x="512.73" y="130.625" width="100.242" height="5.95883" rx="2.97941" fill="#9203FC"></rect><rect x="512.73" y="152.584" width="114.539" height="5.95883" rx="2.97941" fill="#9203FC" fill-opacity="0.6"></rect><rect x="512.73" y="174.543" width="100.242" height="5.95883" rx="2.97941" fill="#9203FC" fill-opacity="0.6"></rect></g><g opacity="0.12"><path d="M-54.9922 122.625C-54.9922 109.37 -44.247 98.625 -30.9922 98.625H99.5469C112.802 98.625 123.547 109.37 123.547 122.625V188.501C123.547 201.756 112.802 212.501 99.5469 212.501H-54.9922V122.625Z" fill="#9203FC"></path><path d="M-54.9922 122.625C-54.9922 109.37 -44.247 98.625 -30.9922 98.625H99.5469C112.802 98.625 123.547 109.37 123.547 122.625V188.501C123.547 201.756 112.802 212.501 99.5469 212.501H-54.9922V122.625Z" fill="url(#paint3_linear_870_30882)"></path><rect x="-22.9922" y="130.625" width="100.242" height="5.95883" rx="2.97941" fill="#9203FC"></rect><rect x="-22.9922" y="152.584" width="114.539" height="5.95883" rx="2.97941" fill="#9203FC" fill-opacity="0.6"></rect><rect x="-22.9922" y="174.543" width="100.242" height="5.95883" rx="2.97941" fill="#9203FC" fill-opacity="0.6"></rect></g><g opacity="0.12"><path d="M-46.2266 -80.4437C-46.2266 -103.797 -27.295 -122.729 -3.9417 -122.729H226.051C249.404 -122.729 268.336 -103.797 268.336 -80.4437V35.6222C268.336 58.9754 249.404 77.907 226.051 77.907H-46.2266V-80.4437Z" fill="#9203FC"></path><path d="M-46.2266 -80.4437C-46.2266 -103.797 -27.295 -122.729 -3.9417 -122.729H226.051C249.404 -122.729 268.336 -103.797 268.336 -80.4437V35.6222C268.336 58.9754 249.404 77.907 226.051 77.907H-46.2266V-80.4437Z" fill="url(#paint4_linear_870_30882)"></path><rect x="10.1532" y="11.0283" width="176.614" height="10.4987" rx="5.24934" fill="#9203FC" fill-opacity="0.6"></rect></g><g opacity="0.12"><path d="M300.914 -35.9126C300.914 -52.2144 314.129 -65.4297 330.431 -65.4297H512.444C528.746 -65.4297 541.961 -52.2144 541.961 -35.9126V45.1076C541.961 61.4094 528.746 74.6247 512.444 74.6247H300.914V-35.9126Z" fill="#9203FC"></path><path d="M300.914 -35.9126C300.914 -52.2144 314.129 -65.4297 330.431 -65.4297H512.444C528.746 -65.4297 541.961 -52.2144 541.961 -35.9126V45.1076C541.961 61.4094 528.746 74.6247 512.444 74.6247H300.914V-35.9126Z" fill="url(#paint5_linear_870_30882)"></path><rect x="340.27" y="0.933594" width="121.355" height="7.32864" rx="3.66432" fill="#9203FC" fill-opacity="0.6"></rect><rect x="340.27" y="27.9404" width="140.869" height="7.32864" rx="3.66432" fill="#9203FC" fill-opacity="0.6"></rect></g></g><g filter="url(#filter0_d_870_30882)" style="transform-origin: right center;"><g filter="url(#filter1_i_870_30882)"><rect x="117.438" y="152.68" width="47.3203" height="47.3203" rx="23.6602" fill="#9203FC"></rect><path d="M149.424 186.991V184.91C149.424 183.806 148.985 182.747 148.205 181.966C147.424 181.186 146.365 180.747 145.261 180.747H136.936C135.832 180.747 134.774 181.186 133.993 181.966C133.212 182.747 132.774 183.806 132.774 184.91V186.991" stroke="#11131B" stroke-width="3.30112" stroke-linecap="round" stroke-linejoin="round"></path><path d="M141.095 175.626C143.394 175.626 145.258 173.762 145.258 171.463C145.258 169.164 143.394 167.301 141.095 167.301C138.796 167.301 136.933 169.164 136.933 171.463C136.933 173.762 138.796 175.626 141.095 175.626Z" stroke="#11131B" stroke-width="3.30112" stroke-linecap="round" stroke-linejoin="round"></path></g><path d="M188.758 128.082C188.758 114.827 199.503 104.082 212.758 104.082H423.317C436.572 104.082 447.317 114.827 447.317 128.082V176C447.317 189.255 436.572 200 423.317 200H188.758V128.082Z" fill="#09020E"></path><path d="M188.758 128.082C188.758 114.827 199.503 104.082 212.758 104.082H423.317C436.572 104.082 447.317 114.827 447.317 128.082V176C447.317 189.255 436.572 200 423.317 200H188.758V128.082Z" fill="url(#paint6_linear_870_30882)"></path><rect x="213.758" y="136.082" width="208.559" height="5.95883" rx="2.97941" fill="#9203FC"></rect><rect x="213.758" y="162.041" width="160.667" height="5.95883" rx="2.97941" fill="#9203FC" fill-opacity="0.6"></rect></g><defs><filter id="filter0_d_870_30882" x="17.4375" y="4.08203" width="529.879" height="295.918" filterUnits="userSpaceOnUse" color-interpolation-filters="sRGB"><feFlood flood-opacity="0" result="BackgroundImageFix"></feFlood><feColorMatrix in="SourceAlpha" type="matrix" values="0 0 0 0 0 0 0 0 0 0 0 0 0 0 0 0 0 0 127 0" result="hardAlpha"></feColorMatrix><feOffset></feOffset><feGaussianBlur stdDeviation="50"></feGaussianBlur><feComposite in2="hardAlpha" operator="out"></feComposite><feColorMatrix type="matrix" values="0 0 0 0 0 0 0 0 0 0 0 0 0 0 0 0 0 0 1 0"></feColorMatrix><feBlend mode="normal" in2="BackgroundImageFix" result="effect1_dropShadow_870_30882"></feBlend><feBlend mode="normal" in="SourceGraphic" in2="effect1_dropShadow_870_30882" result="shape"></feBlend></filter><filter id="filter1_i_870_30882" x="117.438" y="152.68" width="47.3203" height="47.3203" filterUnits="userSpaceOnUse" color-interpolation-filters="sRGB"><feFlood flood-opacity="0" result="BackgroundImageFix"></feFlood><feBlend mode="normal" in="SourceGraphic" in2="BackgroundImageFix" result="shape"></feBlend><feColorMatrix in="SourceAlpha" type="matrix" values="0 0 0 0 0 0 0 0 0 0 0 0 0 0 0 0 0 0 127 0" result="hardAlpha"></feColorMatrix><feOffset></feOffset><feGaussianBlur stdDeviation="2"></feGaussianBlur><feComposite in2="hardAlpha" operator="arithmetic" k2="-1" k3="1"></feComposite><feColorMatrix type="matrix" values="0 0 0 0 0.753447 0 0 0 0 0.420833 0 0 0 0 1 0 0 0 0.25 0"></feColorMatrix><feBlend mode="normal" in2="shape" result="effect1_innerShadow_870_30882"></feBlend></filter><linearGradient id="paint0_linear_870_30882" x1="77.25" y1="235.488" x2="77.25" y2="375.543" gradientUnits="userSpaceOnUse"><stop stop-color="#D223FF" stop-opacity="0.25"></stop><stop offset="1" stop-color="#D223FF" stop-opacity="0"></stop></linearGradient><linearGradient id="paint1_linear_870_30882" x1="386.469" y1="235.488" x2="386.469" y2="415.633" gradientUnits="userSpaceOnUse"><stop stop-color="#D223FF" stop-opacity="0.25"></stop><stop offset="1" stop-color="#D223FF" stop-opacity="0"></stop></linearGradient><linearGradient id="paint2_linear_870_30882" x1="570" y1="98.625" x2="570" y2="212.501" gradientUnits="userSpaceOnUse"><stop stop-color="#D223FF" stop-opacity="0.25"></stop><stop offset="1" stop-color="#D223FF" stop-opacity="0"></stop></linearGradient><linearGradient id="paint3_linear_870_30882" x1="34.2773" y1="98.625" x2="34.2773" y2="212.501" gradientUnits="userSpaceOnUse"><stop stop-color="#D223FF" stop-opacity="0.25"></stop><stop offset="1" stop-color="#D223FF" stop-opacity="0"></stop></linearGradient><linearGradient id="paint4_linear_870_30882" x1="111.055" y1="-122.729" x2="111.055" y2="77.907" gradientUnits="userSpaceOnUse"><stop stop-color="#D223FF" stop-opacity="0.25"></stop><stop offset="1" stop-color="#D223FF" stop-opacity="0"></stop></linearGradient><linearGradient id="paint5_linear_870_30882" x1="421.438" y1="-65.4297" x2="421.438" y2="74.6247" gradientUnits="userSpaceOnUse"><stop stop-color="#D223FF" stop-opacity="0.25"></stop><stop offset="1" stop-color="#D223FF" stop-opacity="0"></stop></linearGradient><linearGradient id="paint6_linear_870_30882" x1="318.037" y1="-48.5193" x2="318.037" y2="306.274" gradientUnits="userSpaceOnUse"><stop stop-color="#9203FC" stop-opacity="0.52"></stop><stop offset="1" stop-color="#9203FC" stop-opacity="0"></stop></linearGradient></defs></svg>