<svg class="h-12 w-12 grayscale" viewBox="0 0 517 290" fill="none" xmlns="http://www.w3.org/2000/svg"><path d="M496.661 68.8399C473.825 26.5073 429.14 0.150806 380.547 0.313H12.8858C10.4029 0.323079 7.97787 1.06356 5.91283 2.44217C3.84778 3.82079 2.23408 5.77658 1.27276 8.06587C0.325483 10.3405 0.0787737 12.8461 0.564222 15.2617C1.04967 17.6774 2.24517 19.8932 3.99761 21.6253L84.089 101.1C91.1606 108.14 100.795 112.081 110.819 112.081H370.004C388.478 111.886 403.578 126.516 403.773 144.73C403.968 162.945 389.159 177.867 370.685 178.045H191.997C189.512 178.046 187.082 178.779 185.011 180.152C182.94 181.525 181.319 183.477 180.351 185.765C179.395 188.043 179.142 190.554 179.624 192.976C180.107 195.398 181.303 197.621 183.06 199.357L263.2 278.897C270.316 285.933 279.922 289.873 289.929 289.862H370.75C475.901 289.862 555.408 178.921 496.661 68.7913" fill="#FF3008"></path></svg>